<svg id="_Group_" data-name="&lt;Group&gt;" xmlns="http://www.w3.org/2000/svg" width="32.413" height="39.84" viewBox="0 0 32.413 39.84">
  <path id="_Path_" data-name="&lt;Path&gt;" d="M27.072,11.577a9.054,9.054,0,0,1,4.311-7.6,9.268,9.268,0,0,0-7.3-3.948c-3.072-.322-6.051,1.838-7.616,1.838-1.6,0-4.006-1.806-6.6-1.753A9.724,9.724,0,0,0,1.68,5.109c-3.538,6.126-.9,15.129,2.49,20.081,1.7,2.425,3.678,5.133,6.271,5.037,2.538-.105,3.485-1.618,6.549-1.618,3.035,0,3.924,1.618,6.57,1.557,2.723-.044,4.439-2.436,6.075-4.883a20.055,20.055,0,0,0,2.778-5.658,8.749,8.749,0,0,1-5.341-8.048Z" transform="translate(0 9.61)" fill="#fff"/>
  <path id="_Path_2" data-name="&lt;Path&gt;" d="M5.94,6.386A8.914,8.914,0,0,0,7.979,0,9.07,9.07,0,0,0,2.11,3.036,8.482,8.482,0,0,0,.018,9.186a7.5,7.5,0,0,0,5.922-2.8Z" transform="translate(16.135)" fill="#fff"/>
</svg>
