<svg id="CAR_WORKSHOPE" data-name="CAR WORKSHOPE" xmlns="http://www.w3.org/2000/svg" width="43.52" height="43.52" viewBox="0 0 43.52 43.52">
  <g id="Group_122" data-name="Group 122" transform="translate(4.356 9.348)">
    <g id="Group_121" data-name="Group 121" transform="translate(0)">
      <path id="Path_297" data-name="Path 297" d="M38.1,63.145a2.51,2.51,0,0,1-2.11,2.169c1.676.079,2.094,2.277,2.094,2.277.036-1.567,2.158-2.3,2.158-2.3C38.65,65.2,38.1,63.145,38.1,63.145Z" transform="translate(-35.988 -63.145)" fill="#fcfcfc"/>
    </g>
  </g>
  <g id="Group_124" data-name="Group 124" transform="translate(4.113 9.079)">
    <g id="Group_123" data-name="Group 123" transform="translate(0)">
      <path id="Path_298" data-name="Path 298" d="M39,63.79c-1.394-.084-1.917-1.948-1.922-1.967a.243.243,0,0,0-.477.043,2.248,2.248,0,0,1-1.9,1.949.243.243,0,0,0,.025.483c1.462.069,1.863,2.06,1.866,2.08a.243.243,0,0,0,.238.2h.021a.243.243,0,0,0,.223-.237c.032-1.378,1.975-2.07,1.994-2.076A.243.243,0,0,0,39,63.79Zm-2.2,1.676a2.83,2.83,0,0,0-1.229-1.438,2.608,2.608,0,0,0,1.329-1.34,2.967,2.967,0,0,0,1.35,1.413A3.454,3.454,0,0,0,36.8,65.466Z" transform="translate(-34.488 -61.644)" fill="#3a312a"/>
    </g>
  </g>
  <g id="Group_126" data-name="Group 126" transform="translate(1.459 12.568)">
    <g id="Group_125" data-name="Group 125" transform="translate(0 0)">
      <path id="Path_299" data-name="Path 299" d="M19.594,80.125A1.775,1.775,0,0,1,18.1,81.659c1.185.056,1.481,1.611,1.481,1.611.025-1.109,1.526-1.627,1.526-1.627C19.985,81.576,19.594,80.125,19.594,80.125Z" transform="translate(-18.102 -80.125)" fill="#fcfcfc"/>
    </g>
  </g>
  <g id="Group_128" data-name="Group 128" transform="translate(1.216 12.307)">
    <g id="Group_127" data-name="Group 127">
      <path id="Path_300" data-name="Path 300" d="M19.866,80.141c-.934-.056-1.291-1.326-1.295-1.339a.243.243,0,0,0-.477.043,1.522,1.522,0,0,1-1.286,1.314.243.243,0,0,0,.025.483c.978.046,1.251,1.4,1.254,1.414a.243.243,0,0,0,.239.2h.02a.243.243,0,0,0,.223-.237c.021-.925,1.35-1.4,1.363-1.4a.243.243,0,0,0-.065-.472Zm-1.553,1.1a2.075,2.075,0,0,0-.72-.855,1.938,1.938,0,0,0,.789-.8,2.17,2.17,0,0,0,.8.846A2.537,2.537,0,0,0,18.314,81.242Z" transform="translate(-16.602 -78.623)" fill="#3a312a"/>
    </g>
  </g>
  <g id="Group_130" data-name="Group 130" transform="translate(1.459 7.419)">
    <g id="Group_129" data-name="Group 129">
      <path id="Path_301" data-name="Path 301" d="M19.594,53.468A1.775,1.775,0,0,1,18.1,55c1.185.056,1.481,1.611,1.481,1.611.025-1.109,1.526-1.627,1.526-1.627C19.985,54.918,19.594,53.468,19.594,53.468Z" transform="translate(-18.102 -53.468)" fill="#fcfcfc"/>
    </g>
  </g>
  <g id="Group_132" data-name="Group 132" transform="translate(1.216 7.146)">
    <g id="Group_131" data-name="Group 131">
      <path id="Path_302" data-name="Path 302" d="M19.866,53.485c-.934-.056-1.291-1.326-1.295-1.339a.243.243,0,0,0-.477.043A1.522,1.522,0,0,1,16.808,53.5a.243.243,0,0,0,.025.483c.978.046,1.251,1.4,1.254,1.414a.243.243,0,0,0,.238.2h.02a.243.243,0,0,0,.223-.237c.021-.925,1.35-1.4,1.363-1.4a.243.243,0,0,0-.065-.472Zm-1.553,1.1a2.076,2.076,0,0,0-.72-.855,1.938,1.938,0,0,0,.789-.8,2.168,2.168,0,0,0,.8.846A2.535,2.535,0,0,0,18.314,54.586Z" transform="translate(-16.602 -51.967)" fill="#3a312a"/>
    </g>
  </g>
  <g id="Group_134" data-name="Group 134" transform="translate(1.252 20.446)">
    <g id="Group_133" data-name="Group 133" transform="translate(0 0)">
      <path id="Path_303" data-name="Path 303" d="M51.159,120.612c-.09-.008-.181-.013-.271-.016-.127-.007-.254-.01-.384-.01l-6.853-5.664-1.564-1.293a2.693,2.693,0,0,0-1.544-.476H21.751a2.488,2.488,0,0,0-2.311,1.4l-.737,1.7-.978,2.255-.742,1.71a1.938,1.938,0,0,0-.162.773v6.451h41.1V127.1C57.924,123.7,54.951,120.9,51.159,120.612Z" transform="translate(-16.822 -113.153)" fill="#2777b2"/>
    </g>
  </g>
  <g id="Group_136" data-name="Group 136" transform="translate(1.009 20.232)">
    <g id="Group_135" data-name="Group 135">
      <path id="Path_304" data-name="Path 304" d="M49.908,119.113c-.1-.009-.192-.014-.283-.017s-.192-.008-.289-.009L41.013,112.2,41,112.183a2.993,2.993,0,0,0-1.714-.53H20.52a2.775,2.775,0,0,0-2.565,1.554l-.735,1.7a.235.235,0,0,0,.16.314.289.289,0,0,0,.356-.14l.735-1.7a2.216,2.216,0,0,1,2.049-1.242H39.283a2.392,2.392,0,0,1,1.36.417l8.395,6.95a.3.3,0,0,0,.189.066c.124,0,.245,0,.372.01.085,0,.169.008.258.016,3.645.279,6.5,3.025,6.5,6.25v.09H15.874V119.73a1.716,1.716,0,0,1,.144-.686l.741-1.71a.235.235,0,0,0-.16-.314.288.288,0,0,0-.356.14l-.741,1.71a2.15,2.15,0,0,0-.18.859v6.451a.261.261,0,0,0,.276.243H56.633a.261.261,0,0,0,.276-.243v-.333C56.91,122.372,53.832,119.414,49.908,119.113Z" transform="translate(-15.322 -111.653)" fill="#3a312a"/>
    </g>
  </g>
  <g id="Group_138" data-name="Group 138" transform="translate(3.513 21.352)">
    <g id="Group_137" data-name="Group 137" transform="translate(0)">
      <path id="Path_305" data-name="Path 305" d="M42.192,124.183H33.05a.847.847,0,0,0-.8.563l-1.42,3.978a.847.847,0,0,0,.8,1.132H42.193a.9.9,0,0,0,.9-.9v-3.865A.9.9,0,0,0,42.192,124.183Z" transform="translate(-30.782 -124.183)" fill="#8ac6dd"/>
    </g>
  </g>
  <g id="Group_140" data-name="Group 140" transform="translate(3.271 21.115)">
    <g id="Group_139" data-name="Group 139" transform="translate(0)">
      <path id="Path_306" data-name="Path 306" d="M40.94,122.682H39.919a.243.243,0,1,0,0,.486H40.94a.662.662,0,0,1,.661.661v3.865a.662.662,0,0,1-.661.661H30.377a.6.6,0,0,1-.569-.808l1.42-3.978a.606.606,0,0,1,.569-.4h5.8a.243.243,0,1,0,0-.486H31.8a1.093,1.093,0,0,0-1.027.724l-1.42,3.978a1.09,1.09,0,0,0,1.027,1.457H40.94a1.148,1.148,0,0,0,1.147-1.147v-3.865A1.148,1.148,0,0,0,40.94,122.682Z" transform="translate(-29.287 -122.682)" fill="#3a312a"/>
    </g>
  </g>
  <g id="Group_142" data-name="Group 142" transform="translate(21.127 21.333)">
    <g id="Group_141" data-name="Group 141" transform="translate(0)">
      <path id="Path_307" data-name="Path 307" d="M125.2,124.073h-6.27a.9.9,0,0,0-.9.9v3.883a.9.9,0,0,0,.9.9l12.289-.026Z" transform="translate(-118.022 -124.073)" fill="#8ac6dd"/>
    </g>
  </g>
  <g id="Group_144" data-name="Group 144" transform="translate(20.903 21.096)">
    <g id="Group_143" data-name="Group 143">
      <path id="Path_308" data-name="Path 308" d="M130.125,128.3l-6.019-5.664a.243.243,0,0,0-.167-.066h-6.27a1.148,1.148,0,0,0-1.147,1.147V127.6a1.148,1.148,0,0,0,1.147,1.147h0l12.289-.026a.243.243,0,0,0,.166-.42Zm-12.456-.04a.662.662,0,0,1-.661-.661V123.72a.662.662,0,0,1,.661-.661h6.174l5.5,5.18Z" transform="translate(-116.522 -122.573)" fill="#3a312a"/>
    </g>
  </g>
  <g id="Group_146" data-name="Group 146" transform="translate(0.328 36.689)">
    <g id="Group_145" data-name="Group 145">
      <path id="Path_309" data-name="Path 309" d="M53.118,201.341H12.069a.846.846,0,1,0,0,1.679H53.118a.846.846,0,1,0,0-1.679Z" transform="translate(-11.119 -201.341)" fill="#2777b2"/>
    </g>
  </g>
  <g id="Group_148" data-name="Group 148" transform="translate(0.085 36.446)">
    <g id="Group_147" data-name="Group 147" transform="translate(0)">
      <path id="Path_310" data-name="Path 310" d="M51.831,199.841H10.842a1.09,1.09,0,1,0,0,2.165H51.831a1.09,1.09,0,1,0,0-2.165Zm0,1.679H10.842a.6.6,0,1,1,0-1.193H51.831a.6.6,0,1,1,0,1.193Z" transform="translate(-9.619 -199.841)" fill="#3a312a"/>
    </g>
  </g>
  <g id="Group_150" data-name="Group 150" transform="translate(1.671 33.267)">
    <g id="Group_149" data-name="Group 149" transform="translate(0 0)">
      <circle id="Ellipse_61" data-name="Ellipse 61" cx="4.468" cy="4.468" r="4.468" transform="translate(0 1.432) rotate(-9.218)" fill="#1c608d"/>
    </g>
  </g>
  <g id="Group_152" data-name="Group 152" transform="translate(2.085 33.682)">
    <g id="Group_151" data-name="Group 151">
      <path id="Path_311" data-name="Path 311" d="M26.68,182.773a4.711,4.711,0,1,0,4.711,4.711A4.717,4.717,0,0,0,26.68,182.773Zm0,8.937a4.225,4.225,0,1,1,4.225-4.225A4.23,4.23,0,0,1,26.68,191.71Z" transform="translate(-21.969 -182.773)" fill="#3a312a"/>
    </g>
  </g>
  <g id="Group_154" data-name="Group 154" transform="translate(4.527 36.123)">
    <g id="Group_153" data-name="Group 153" transform="translate(0 0)">
      <circle id="Ellipse_62" data-name="Ellipse 62" cx="1.979" cy="1.979" r="1.979" transform="translate(0 0.634) rotate(-9.218)" fill="#fff"/>
    </g>
  </g>
  <g id="Group_156" data-name="Group 156" transform="translate(4.575 36.171)">
    <g id="Group_155" data-name="Group 155">
      <path id="Path_312" data-name="Path 312" d="M39.56,198.142a2.222,2.222,0,1,0,2.222,2.222A2.224,2.224,0,0,0,39.56,198.142Zm0,3.958a1.736,1.736,0,1,1,1.736-1.736A1.738,1.738,0,0,1,39.56,202.1Z" transform="translate(-37.338 -198.142)" fill="#3a312a"/>
    </g>
  </g>
  <g id="Group_158" data-name="Group 158" transform="translate(32.34 33.925)">
    <g id="Group_157" data-name="Group 157">
      <circle id="Ellipse_63" data-name="Ellipse 63" cx="4.468" cy="4.468" r="4.468" fill="#1c608d"/>
    </g>
  </g>
  <g id="Group_160" data-name="Group 160" transform="translate(32.097 33.682)">
    <g id="Group_159" data-name="Group 159">
      <path id="Path_313" data-name="Path 313" d="M181.093,182.773a4.711,4.711,0,1,0,4.711,4.711A4.717,4.717,0,0,0,181.093,182.773Zm0,8.937a4.225,4.225,0,1,1,4.225-4.225A4.23,4.23,0,0,1,181.093,191.71Z" transform="translate(-176.382 -182.773)" fill="#3a312a"/>
    </g>
  </g>
  <g id="Group_162" data-name="Group 162" transform="translate(34.829 36.414)">
    <g id="Group_161" data-name="Group 161">
      <circle id="Ellipse_64" data-name="Ellipse 64" cx="1.979" cy="1.979" r="1.979" fill="#fff"/>
    </g>
  </g>
  <g id="Group_164" data-name="Group 164" transform="translate(34.586 36.171)">
    <g id="Group_163" data-name="Group 163">
      <path id="Path_314" data-name="Path 314" d="M193.973,198.142a2.222,2.222,0,1,0,2.222,2.222A2.224,2.224,0,0,0,193.973,198.142Zm0,3.958a1.736,1.736,0,1,1,1.736-1.736A1.738,1.738,0,0,1,193.973,202.1Z" transform="translate(-191.751 -198.142)" fill="#3a312a"/>
    </g>
  </g>
  <g id="Group_166" data-name="Group 166" transform="translate(3.273 29.075)">
    <g id="Group_165" data-name="Group 165">
      <path id="Path_315" data-name="Path 315" d="M30.934,166.276h-1.1a.533.533,0,0,0-.533.533v1.1a.533.533,0,0,0,.533.533h1.1a.533.533,0,0,0,.533-.533v-1.1A.533.533,0,0,0,30.934,166.276Z" transform="translate(-29.301 -166.276)" fill="#87796f"/>
    </g>
  </g>
  <g id="Group_168" data-name="Group 168" transform="translate(3.03 28.851)">
    <g id="Group_167" data-name="Group 167">
      <path id="Path_316" data-name="Path 316" d="M29.677,164.776h-1.1a.776.776,0,0,0-.776.776v1.1a.776.776,0,0,0,.776.776h1.1a.776.776,0,0,0,.776-.776v-1.1A.777.777,0,0,0,29.677,164.776Zm.29,1.876a.29.29,0,0,1-.29.29h-1.1a.29.29,0,0,1-.29-.29v-1.1a.29.29,0,0,1,.29-.29h1.1a.29.29,0,0,1,.29.29Z" transform="translate(-27.801 -164.776)" fill="#3a312a"/>
    </g>
  </g>
  <g id="Group_170" data-name="Group 170" transform="translate(38.03 28.972)">
    <g id="Group_169" data-name="Group 169">
      <path id="Path_317" data-name="Path 317" d="M215.867,165.755h-1.782a1.073,1.073,0,0,0,0,2.146h1.782a1.073,1.073,0,0,0,0-2.146Z" transform="translate(-213.012 -165.755)" fill="#f8f8f8"/>
    </g>
  </g>
  <g id="Group_172" data-name="Group 172" transform="translate(37.787 28.748)">
    <g id="Group_171" data-name="Group 171">
      <path id="Path_318" data-name="Path 318" d="M214.61,164.255h-1.782a1.316,1.316,0,1,0,0,2.632h1.782a1.316,1.316,0,0,0,0-2.632Zm0,2.146h-1.782a.83.83,0,1,1,0-1.66h1.782a.83.83,0,0,1,0,1.66Z" transform="translate(-211.512 -164.255)" fill="#3a312a"/>
    </g>
  </g>
  <g id="Group_174" data-name="Group 174" transform="translate(0.243 28.972)">
    <g id="Group_173" data-name="Group 173" transform="translate(0)">
      <path id="Path_319" data-name="Path 319" d="M11.386,165.755h-.791V167.9h.791a1.073,1.073,0,0,0,0-2.146Z" transform="translate(-10.595 -165.755)" fill="#fcfcfc"/>
    </g>
  </g>
  <g id="Group_176" data-name="Group 176" transform="translate(0 28.748)">
    <g id="Group_175" data-name="Group 175">
      <path id="Path_320" data-name="Path 320" d="M10.129,164.255H9.338a.243.243,0,0,0-.243.243v2.146a.243.243,0,0,0,.243.243h.791a1.316,1.316,0,1,0,0-2.632Zm0,2.146H9.581v-1.66h.548a.83.83,0,1,1,0,1.66Z" transform="translate(-9.095 -164.255)" fill="#3a312a"/>
    </g>
  </g>
  <g id="Group_178" data-name="Group 178" transform="translate(22.998 10.832)">
    <g id="Group_177" data-name="Group 177" transform="translate(0 0)">
      <path id="Path_321" data-name="Path 321" d="M139.776,72.384a3.982,3.982,0,0,1,.293-1.224H129.6a4.005,4.005,0,0,1,0,3.067h10.471A4.016,4.016,0,0,1,139.776,72.384Z" transform="translate(-129.598 -71.16)" fill="#f8f8f8"/>
    </g>
  </g>
  <g id="Group_180" data-name="Group 180" transform="translate(22.772 10.567)">
    <g id="Group_179" data-name="Group 179">
      <path id="Path_322" data-name="Path 322" d="M138.761,71.145a3.736,3.736,0,0,1,.275-1.15.243.243,0,0,0-.225-.336h-2.3a.243.243,0,0,0,0,.486h1.949a4.258,4.258,0,0,0,0,2.581h-9.775a4.263,4.263,0,0,0,0-2.581h5.461a.243.243,0,0,0,0-.486h-5.809a.243.243,0,0,0-.224.336,3.764,3.764,0,0,1,0,2.88.243.243,0,0,0,.224.336h10.471a.243.243,0,0,0,.225-.336A3.746,3.746,0,0,1,138.761,71.145Z" transform="translate(-128.098 -69.659)" fill="#3a312a"/>
    </g>
  </g>
  <g id="Group_182" data-name="Group 182" transform="translate(34.685 8.104)">
    <g id="Group_181" data-name="Group 181" transform="translate(0 0)">
      <path id="Path_323" data-name="Path 323" d="M195.661,60.9V58.923a.592.592,0,0,1,.592-.592h3.793a4,4,0,1,0,0,3.165h-3.793A.592.592,0,0,1,195.661,60.9Z" transform="translate(-192.364 -55.909)" fill="#f8f8f8"/>
    </g>
  </g>
  <g id="Group_184" data-name="Group 184" transform="translate(34.442 7.832)">
    <g id="Group_183" data-name="Group 183" transform="translate(0 0)">
      <path id="Path_324" data-name="Path 324" d="M198.789,60H195a.35.35,0,0,1-.349-.349V57.67A.35.35,0,0,1,195,57.32h3.793a.243.243,0,0,0,.223-.339,4.247,4.247,0,1,0,0,3.358.243.243,0,0,0-.223-.339Zm-3.679,2.422a3.773,3.773,0,0,1-2.757-1.2,3.733,3.733,0,0,1-.992-2.849,3.785,3.785,0,0,1,3.384-3.452q.181-.017.36-.017a3.76,3.76,0,0,1,3.295,1.935H195a.836.836,0,0,0-.835.835V59.65a.836.836,0,0,0,.835.835h3.4A3.76,3.76,0,0,1,195.11,62.421Z" transform="translate(-190.863 -54.413)" fill="#3a312a"/>
    </g>
  </g>
  <g id="Group_186" data-name="Group 186" transform="translate(14.11 8.104)">
    <g id="Group_185" data-name="Group 185">
      <path id="Path_325" data-name="Path 325" d="M87.731,55.909a4,4,0,0,0-3.679,2.422h3.793a.592.592,0,0,1,.592.592V60.9a.592.592,0,0,1-.592.592H84.052a4,4,0,1,0,3.679-5.587Z" transform="translate(-84.052 -55.909)" fill="#f8f8f8"/>
    </g>
  </g>
  <g id="Group_188" data-name="Group 188" transform="translate(13.859 7.831)">
    <g id="Group_187" data-name="Group 187">
      <path id="Path_326" data-name="Path 326" d="M89.588,55.768a4.247,4.247,0,0,0-7.016,1.209.243.243,0,0,0,.223.339h3.793a.35.35,0,0,1,.349.349v1.981a.35.35,0,0,1-.349.349H82.8a.243.243,0,0,0-.223.339A4.243,4.243,0,0,0,86.479,62.9q.2,0,.407-.019a4.276,4.276,0,0,0,3.823-3.9A4.213,4.213,0,0,0,89.588,55.768Zm.636,3.18a3.761,3.761,0,0,1-7.039,1.534h3.4a.836.836,0,0,0,.835-.835V57.666a.836.836,0,0,0-.835-.835h-3.4a3.762,3.762,0,0,1,7.039,2.117Z" transform="translate(-82.552 -54.409)" fill="#3a312a"/>
    </g>
  </g>
  <g id="Group_190" data-name="Group 190" transform="translate(7.309 0.243)">
    <g id="Group_189" data-name="Group 189" transform="translate(0)">
      <path id="Path_327" data-name="Path 327" d="M57.671,16.555H48.444a1.382,1.382,0,0,0-1.382,1.382v2.507a1.382,1.382,0,0,0,1.382,1.382h9.227a1.382,1.382,0,0,0,1.382-1.382V17.937A1.382,1.382,0,0,0,57.671,16.555Z" transform="translate(-47.062 -16.555)" fill="#2777b2"/>
    </g>
  </g>
  <g id="Group_192" data-name="Group 192" transform="translate(7.041 0)">
    <g id="Group_191" data-name="Group 191">
      <path id="Path_328" data-name="Path 328" d="M56.414,15.055H53.883a.243.243,0,1,0,0,.486h2.531a1.141,1.141,0,0,1,1.139,1.139v2.507a1.141,1.141,0,0,1-1.139,1.139H47.187a1.141,1.141,0,0,1-1.139-1.139V16.68a1.141,1.141,0,0,1,1.139-1.139h4.319a.243.243,0,1,0,0-.486H47.187a1.627,1.627,0,0,0-1.625,1.625v2.507a1.627,1.627,0,0,0,1.625,1.625h9.226a1.627,1.627,0,0,0,1.625-1.625V16.68A1.627,1.627,0,0,0,56.414,15.055Z" transform="translate(-45.562 -15.055)" fill="#3a312a"/>
    </g>
  </g>
  <g id="Group_194" data-name="Group 194" transform="translate(21.354 1.911)">
    <g id="Group_193" data-name="Group 193">
      <path id="Path_329" data-name="Path 329" d="M131.432,26.855H121.016a.452.452,0,0,1,.014.115v1.7a.527.527,0,0,1-.012.115h10.413Z" transform="translate(-121.016 -26.855)" fill="#1c608d"/>
    </g>
  </g>
  <g id="Group_196" data-name="Group 196" transform="translate(21.124 1.668)">
    <g id="Group_195" data-name="Group 195" transform="translate(0 0)">
      <path id="Path_330" data-name="Path 330" d="M130.417,25.6a.243.243,0,0,0-.243-.243H119.758a.243.243,0,0,0-.235.305.217.217,0,0,1,.006.053v1.7a.28.28,0,0,1-.007.062.243.243,0,0,0,.237.3h10.413a.243.243,0,0,0,.243-.243Zm-5.382,1.692h-5.018V25.841h9.916v1.448Z" transform="translate(-119.515 -25.355)" fill="#3a312a"/>
    </g>
  </g>
  <g id="Group_198" data-name="Group 198" transform="translate(32.54 1.911)">
    <g id="Group_197" data-name="Group 197">
      <path id="Path_331" data-name="Path 331" d="M186.963,26.856h-1.644v1.934h1.644l1.155-.486v-.962Z" transform="translate(-185.319 -26.855)" fill="#87796f"/>
    </g>
  </g>
  <g id="Group_200" data-name="Group 200" transform="translate(32.317 1.669)">
    <g id="Group_199" data-name="Group 199" transform="translate(0 0)">
      <path id="Path_332" data-name="Path 332" d="M186.955,25.862l-1.154-.486a.245.245,0,0,0-.094-.019h-1.644a.243.243,0,0,0-.243.243v1.934a.243.243,0,0,0,.243.243h1.644a.245.245,0,0,0,.094-.019l1.154-.486a.243.243,0,0,0,.149-.224v-.962A.243.243,0,0,0,186.955,25.862Zm-.337,1.025-.961.4H184.3V25.842h1.352l.961.4Z" transform="translate(-183.819 -25.356)" fill="#3a312a"/>
    </g>
  </g>
  <g id="Group_202" data-name="Group 202" transform="translate(24.659 20.662)">
    <g id="Group_201" data-name="Group 201" transform="translate(0 0)">
      <path id="Path_333" data-name="Path 333" d="M132.892,114.655h-2.43a1.937,1.937,0,0,1,1.2.416l.92.867h2.43l-.92-.867A1.937,1.937,0,0,0,132.892,114.655Zm10.7,9.351a1.317,1.317,0,0,1,.875-1.239,6.159,6.159,0,0,0-2.271-.654c-.078-.008-.152-.011-.227-.015-.112-.006-.219-.01-.327-.01l-2.23,0c.042,0,.084,0,.128,0,.075,0,.149.007.227.015a6.159,6.159,0,0,1,2.271.654,1.315,1.315,0,0,0,.442,2.554h1.782a1.333,1.333,0,0,0,.324-.041A1.317,1.317,0,0,1,143.59,124.006Zm3.491,1.255a1.312,1.312,0,0,1-.392.06h-1.782a1.249,1.249,0,0,1-.235-.021,6.118,6.118,0,0,1,.509,1.153,4.748,4.748,0,0,1,1.719,2h1.014v-.091A6.209,6.209,0,0,0,147.081,125.261Z" transform="translate(-130.462 -114.655)" fill="#1c608d"/>
    </g>
  </g>
  <g id="Group_204" data-name="Group 204" transform="translate(25.937 21.567)">
    <g id="Group_203" data-name="Group 203">
      <path id="Path_334" data-name="Path 334" d="M149.152,125.575h-2.43l5.5,5.18h2.43Z" transform="translate(-146.722 -125.575)" fill="#6ca8bf"/>
    </g>
  </g>
  <g id="Group_206" data-name="Group 206" transform="translate(41.286 36.932)">
    <g id="Group_205" data-name="Group 205">
      <path id="Path_335" data-name="Path 335" d="M234.267,202.841h-1.151a4.673,4.673,0,0,1,.225,1.193h.926a.6.6,0,1,0,0-1.193Z" transform="translate(-233.116 -202.841)" fill="#695b51"/>
    </g>
  </g>
</svg>
