<?xml version="1.0" encoding="UTF-8"?>
<svg width="22px" height="22px" viewBox="0 0 22 22" version="1.1" xmlns="http://www.w3.org/2000/svg" xmlns:xlink="http://www.w3.org/1999/xlink">
    <title>9DAFCDC8-2CA3-494D-AB5C-6E3A2169637C@1</title>
    <g id="Details-Page" stroke="none" stroke-width="1" fill="none" fill-rule="evenodd">
        <g id="Details-Page---Inspection-Edits" transform="translate(-746.000000, -2358.000000)">
            <g id="Group-20" transform="translate(746.000000, 2300.000000)">
                <g id="check-mark-(2)-copy-3" transform="translate(0.000000, 58.000000)">
                    <path d="M22,11 C22,17.080246 17.0794067,22 11,22 C4.91975404,22 0,17.0794067 0,11 C0,4.91975404 4.92059326,0 11,0 C17.080246,0 22,4.92059326 22,11 Z" id="Shape" fill="#5CD49E" fill-rule="nonzero"></path>
                    <path d="M15.9768066,8.25164411 C16.3125,8.58733747 16.3125,9.13149643 15.9768066,9.46702195 L10.2116089,15.2323875 C9.87591553,15.567913 9.33192441,15.567913 8.99623105,15.2323875 L6.25177002,12.4877586 C5.91607666,12.1522331 5.91607666,11.6080742 6.25177002,11.2725487 C6.5872955,10.9368553 7.13145446,10.9368553 7.46697998,11.2725487 L9.60383603,13.4094048 L14.7614288,8.25164411 C15.0971222,7.91611863 15.6412811,7.91611863 15.9768066,8.25164411 L15.9768066,8.25164411 Z" id="Path" fill="#FFFFFF"></path>
                </g>
            </g>
        </g>
    </g>
</svg>