<svg xmlns="http://www.w3.org/2000/svg" width="346.329" height="222.296" viewBox="0 0 346.329 222.296">
  <g id="Group_66145" data-name="Group 66145" transform="translate(-33.97 -29.149)">
    <path id="Union_1" data-name="Union 1" d="M44.061,47.445a20.687,20.687,0,0,0,2.869,2.7,19.271,19.271,0,0,0,3.3,2.067A18.162,18.162,0,0,0,53.9,53.555a17.793,17.793,0,0,0,8.91-.1,18.3,18.3,0,0,0,4.526-1.919,19.864,19.864,0,0,0,3.927-3.059,21.635,21.635,0,0,0,3.159-4.028,12.424,12.424,0,0,0,1.426.764,12.044,12.044,0,0,0,1.518.571,11.832,11.832,0,0,0,8.319-.567,12.9,12.9,0,0,0,4.154-3.041,14.446,14.446,0,0,0,2.813-4.563,15.792,15.792,0,0,0,0-11.242,14.56,14.56,0,0,0-2.813-4.58,13.012,13.012,0,0,0-4.154-3.066,11.84,11.84,0,0,0-9.838-.055,12.345,12.345,0,0,0-1.426.756A21.824,21.824,0,0,0,71.26,15.38,20.037,20.037,0,0,0,67.333,12.3a18.415,18.415,0,0,0-4.526-1.946,17.743,17.743,0,0,0-4.959-.645l-.205,0-.2.006-.2.008-.2.011A14.407,14.407,0,0,0,55.192,6.1,13.063,13.063,0,0,0,52.51,3.269a11.663,11.663,0,0,0-3.333-1.816,10.982,10.982,0,0,0-3.792-.6,11.1,11.1,0,0,0-3.842.759,12.009,12.009,0,0,0-3.332,1.98,13.524,13.524,0,0,0-2.636,2.974,14.8,14.8,0,0,0-1.756,3.745q-.4-.075-.81-.131t-.82-.092q-.412-.036-.829-.052t-.837-.011a16.823,16.823,0,0,0-4.486.662,17.48,17.48,0,0,0-4.079,1.775A19.073,19.073,0,0,0,18.4,15.2a20.937,20.937,0,0,0-2.914,3.552q-.445-.17-.905-.3t-.932-.216q-.472-.087-.956-.13t-.977-.04a10.4,10.4,0,0,0-4.584,1.1A11.886,11.886,0,0,0,3.413,22.1a13.974,13.974,0,0,0-2.5,4.327,15.752,15.752,0,0,0,0,10.577,14.082,14.082,0,0,0,2.5,4.343,11.989,11.989,0,0,0,3.722,2.96,10.442,10.442,0,0,0,4.584,1.129q.493.006.977-.034t.956-.124q.472-.084.932-.211t.9-.294A21.127,21.127,0,0,0,18.4,48.343,19.238,19.238,0,0,0,21.958,51.1a17.6,17.6,0,0,0,4.079,1.8,16.872,16.872,0,0,0,8.316.317,17.107,17.107,0,0,0,3.587-1.2A18.236,18.236,0,0,0,41.2,50.063,19.771,19.771,0,0,0,44.061,47.445Z" transform="translate(286.615 29.149)" fill="#fff"/>
    <path id="Union_2" data-name="Union 2" d="M25.281,27.536a11.772,11.772,0,0,0,1.624,1.572A10.732,10.732,0,0,0,28.771,30.3a9.945,9.945,0,0,0,2.066.765,9.652,9.652,0,0,0,5.006-.1,10.12,10.12,0,0,0,2.533-1.135,11.266,11.266,0,0,0,2.192-1.792,12.6,12.6,0,0,0,1.76-2.348,6.792,6.792,0,0,0,.793.439,6.494,6.494,0,0,0,.844.326,6.309,6.309,0,0,0,4.612-.353,7.2,7.2,0,0,0,2.295-1.768,8.453,8.453,0,0,0,1.551-2.64,9.519,9.519,0,0,0,0-6.487,8.491,8.491,0,0,0-1.551-2.645,7.241,7.241,0,0,0-2.295-1.776,6.306,6.306,0,0,0-4.612-.37,6.473,6.473,0,0,0-.844.323,6.763,6.763,0,0,0-.793.436,12.652,12.652,0,0,0-1.76-2.354,11.325,11.325,0,0,0-2.192-1.8,10.16,10.16,0,0,0-2.533-1.144,9.637,9.637,0,0,0-2.783-.39h-.116l-.115,0-.115,0-.115.006a8.585,8.585,0,0,0-1.033-2.126,7.6,7.6,0,0,0-1.511-1.661A6.576,6.576,0,0,0,28.174.647a6.066,6.066,0,0,0-4.321.058,6.71,6.71,0,0,0-1.892,1.146,7.78,7.78,0,0,0-1.5,1.734,8.75,8.75,0,0,0-1,2.192Q19.232,5.732,19,5.7t-.467-.056q-.235-.022-.473-.033T17.582,5.6a9.352,9.352,0,0,0-2.565.376,9.832,9.832,0,0,0-2.338,1.034,10.926,10.926,0,0,0-2.041,1.6A12.234,12.234,0,0,0,8.961,10.7q-.256-.1-.521-.178T7.9,10.4q-.272-.052-.551-.078t-.564-.025a5.893,5.893,0,0,0-2.65.644A6.892,6.892,0,0,0,1.982,12.67a8.306,8.306,0,0,0-1.45,2.562,9.509,9.509,0,0,0,0,6.267,8.343,8.343,0,0,0,1.45,2.567,6.927,6.927,0,0,0,2.157,1.741,5.907,5.907,0,0,0,2.65.653q.284,0,.564-.023t.551-.076q.272-.051.537-.127t.521-.176a12.3,12.3,0,0,0,1.677,2.1,10.982,10.982,0,0,0,2.041,1.611,9.869,9.869,0,0,0,2.338,1.042,9.366,9.366,0,0,0,4.749.15,9.607,9.607,0,0,0,2.041-.72,10.4,10.4,0,0,0,1.853-1.156A11.455,11.455,0,0,0,25.281,27.536Z" transform="translate(33.97 137.722)" fill="#fff"/>
    <path id="Union_3" data-name="Union 3" d="M31.871,34.735a14.9,14.9,0,0,0,2.057,1.982,13.666,13.666,0,0,0,2.365,1.509,12.7,12.7,0,0,0,2.62.97,12.354,12.354,0,0,0,6.357-.106,12.894,12.894,0,0,0,3.221-1.423,14.275,14.275,0,0,0,2.79-2.253,15.861,15.861,0,0,0,2.242-2.957,8.7,8.7,0,0,0,1.011.556,8.341,8.341,0,0,0,1.076.414,8.123,8.123,0,0,0,5.885-.435,9.171,9.171,0,0,0,2.931-2.229,10.642,10.642,0,0,0,1.983-3.334,11.9,11.9,0,0,0,0-8.2,10.7,10.7,0,0,0-1.983-3.342A9.228,9.228,0,0,0,61.5,13.646a8.12,8.12,0,0,0-5.885-.461,8.305,8.305,0,0,0-1.076.409,8.656,8.656,0,0,0-1.011.552,15.956,15.956,0,0,0-2.242-2.967,14.359,14.359,0,0,0-2.79-2.265,12.951,12.951,0,0,0-3.221-1.437,12.329,12.329,0,0,0-3.535-.485l-.147,0-.146,0L41.3,7l-.145.007a10.745,10.745,0,0,0-1.312-2.675,9.556,9.556,0,0,0-1.917-2.087A8.33,8.33,0,0,0,35.537.9,7.733,7.733,0,0,0,30.064.99,8.53,8.53,0,0,0,27.67,2.437a9.828,9.828,0,0,0-1.9,2.184,11,11,0,0,0-1.264,2.757q-.29-.057-.583-.1t-.59-.07q-.3-.028-.6-.04t-.6-.01a11.869,11.869,0,0,0-3.237.478,12.455,12.455,0,0,0-2.948,1.3,13.793,13.793,0,0,0-2.573,2.017,15.387,15.387,0,0,0-2.112,2.623q-.323-.126-.656-.223T9.932,13.2q-.343-.065-.694-.1t-.709-.031a7.434,7.434,0,0,0-3.332.81,8.664,8.664,0,0,0-2.71,2.174A10.4,10.4,0,0,0,.667,19.261a11.883,11.883,0,0,0,0,7.849,10.46,10.46,0,0,0,1.821,3.218A8.719,8.719,0,0,0,5.2,32.513a7.456,7.456,0,0,0,3.332.825q.358,0,.709-.028t.694-.094q.343-.063.676-.158t.656-.22a15.479,15.479,0,0,0,2.112,2.633A13.881,13.881,0,0,0,15.949,37.5,12.515,12.515,0,0,0,18.9,38.814a11.891,11.891,0,0,0,6,.2,12.165,12.165,0,0,0,2.581-.9,13.127,13.127,0,0,0,2.345-1.448A14.426,14.426,0,0,0,31.871,34.735Z" transform="translate(299.18 211.555)" fill="#fff"/>
  </g>
</svg>
