<svg width="48" height="48" viewBox="0 0 48 48" fill="none" xmlns="http://www.w3.org/2000/svg">
<g clip-path="url(#clip0_1490_268)">
<path d="M48 24C48 35.9794 39.2231 45.9084 27.75 47.7084V30.9375H33.3422L34.4062 24H27.75V19.4981C27.75 17.5997 28.68 15.75 31.6613 15.75H34.6875V9.84375C34.6875 9.84375 31.9406 9.375 29.3147 9.375C23.8331 9.375 20.25 12.6975 20.25 18.7125V24H14.1562V30.9375H20.25V47.7084C8.77688 45.9084 0 35.9794 0 24C0 10.7456 10.7456 0 24 0C37.2544 0 48 10.7456 48 24Z" fill="#1877F2"/>
<path d="M33.3422 30.9375L34.4062 24H27.75V19.498C27.75 17.6001 28.6798 15.75 31.6612 15.75H34.6875V9.84375C34.6875 9.84375 31.941 9.375 29.3152 9.375C23.833 9.375 20.25 12.6975 20.25 18.7125V24H14.1562V30.9375H20.25V47.7083C21.4719 47.9001 22.7242 48 24 48C25.2758 48 26.5281 47.9001 27.75 47.7083V30.9375H33.3422Z" fill="white"/>
</g>
<defs>
<clipPath id="clip0_1490_268">
<rect width="48" height="48" fill="white"/>
</clipPath>
</defs>
</svg>
