<svg id="Group_1085" data-name="Group 1085" xmlns="http://www.w3.org/2000/svg" xmlns:xlink="http://www.w3.org/1999/xlink" width="96.168" height="86.206" viewBox="0 0 96.168 86.206">
  <defs>
    <linearGradient id="linear-gradient" x1="0.5" y1="2.238" x2="0.5" y2="-0.516" gradientUnits="objectBoundingBox">
      <stop offset="0" stop-color="#b8b5c1"/>
      <stop offset="1" stop-color="#fff"/>
    </linearGradient>
    <linearGradient id="linear-gradient-2" x1="0.5" y1="1.707" x2="0.5" y2="-1.048" xlink:href="#linear-gradient"/>
    <linearGradient id="linear-gradient-3" x1="0.5" y1="0.023" x2="0.5" y2="1.109" gradientUnits="objectBoundingBox">
      <stop offset="0" stop-color="#212e2f"/>
      <stop offset="1" stop-color="#5f5856"/>
    </linearGradient>
    <linearGradient id="linear-gradient-4" x1="0.5" y1="1.487" x2="0.5" y2="-4.849" xlink:href="#linear-gradient-3"/>
    <linearGradient id="linear-gradient-5" x1="0.5" y1="2.345" x2="0.5" y2="-0.004" xlink:href="#linear-gradient-3"/>
    <linearGradient id="linear-gradient-6" x1="0.5" y1="1" x2="0.5" y2="-0.097" gradientUnits="objectBoundingBox">
      <stop offset="0" stop-color="#1c608d"/>
      <stop offset="1" stop-color="#3192d9"/>
    </linearGradient>
  </defs>
  <rect id="Rectangle_542" data-name="Rectangle 542" width="96.168" height="86.206" rx="2" transform="translate(0 0)" fill="url(#linear-gradient)"/>
  <rect id="Rectangle_543" data-name="Rectangle 543" width="94.023" height="84.062" rx="2" transform="translate(1.073 1.073)" fill="url(#linear-gradient-2)"/>
  <path id="Rectangle_544" data-name="Rectangle 544" d="M.727,0H81.849a.731.731,0,0,1,.731.731v71.16a.728.728,0,0,1-.728.728H.728A.728.728,0,0,1,0,71.891V.727A.727.727,0,0,1,.727,0Z" transform="translate(6.794 6.794)" fill="url(#linear-gradient-3)"/>
  <rect id="Rectangle_545" data-name="Rectangle 545" width="80.435" height="70.474" transform="translate(7.867 7.866)" fill="url(#linear-gradient-4)"/>
  <path id="Path_1147" data-name="Path 1147" d="M479.839,598.743a1.453,1.453,0,1,1-1.457,1.453,1.452,1.452,0,0,1,1.457-1.453Zm0,52.634a1.455,1.455,0,1,1-1.457,1.453,1.452,1.452,0,0,1,1.457-1.453Zm70.1,0a1.455,1.455,0,1,1-1.456,1.453,1.453,1.453,0,0,1,1.456-1.453Zm-6.373,0a1.455,1.455,0,1,1-1.453,1.453,1.454,1.454,0,0,1,1.453-1.453Zm-6.372,0a1.455,1.455,0,1,1-1.456,1.453,1.452,1.452,0,0,1,1.456-1.453Zm-6.374,0a1.455,1.455,0,1,1-1.453,1.453,1.452,1.452,0,0,1,1.453-1.453Zm-6.372,0a1.455,1.455,0,1,1-1.456,1.453,1.451,1.451,0,0,1,1.456-1.453Zm-6.374,0a1.455,1.455,0,1,1-1.453,1.453,1.452,1.452,0,0,1,1.453-1.453Zm-6.375,0a1.455,1.455,0,1,1-1.453,1.453,1.452,1.452,0,0,1,1.453-1.453Zm-6.371,0a1.455,1.455,0,1,1-1.456,1.453,1.452,1.452,0,0,1,1.456-1.453Zm-6.374,0a1.455,1.455,0,1,1-1.453,1.453,1.454,1.454,0,0,1,1.453-1.453Zm-6.371,0a1.455,1.455,0,1,1-1.456,1.453,1.451,1.451,0,0,1,1.456-1.453Zm-6.374,0a1.455,1.455,0,1,1-1.453,1.453,1.454,1.454,0,0,1,1.453-1.453Zm-6.371-13.159a1.455,1.455,0,1,1-1.457,1.453,1.454,1.454,0,0,1,1.457-1.453Zm70.1,0a1.455,1.455,0,1,1-1.456,1.453,1.454,1.454,0,0,1,1.456-1.453Zm-6.373,0a1.455,1.455,0,1,1-1.453,1.453,1.456,1.456,0,0,1,1.453-1.453Zm-6.372,0a1.455,1.455,0,1,1-1.456,1.453,1.454,1.454,0,0,1,1.456-1.453Zm-6.374,0a1.455,1.455,0,1,1-1.453,1.453,1.454,1.454,0,0,1,1.453-1.453Zm-6.372,0a1.455,1.455,0,1,1-1.456,1.453,1.453,1.453,0,0,1,1.456-1.453Zm-6.374,0a1.455,1.455,0,1,1-1.453,1.453,1.453,1.453,0,0,1,1.453-1.453Zm-6.375,0a1.455,1.455,0,1,1-1.453,1.453,1.454,1.454,0,0,1,1.453-1.453Zm-6.371,0a1.455,1.455,0,1,1-1.456,1.453,1.454,1.454,0,0,1,1.456-1.453Zm-6.374,0a1.455,1.455,0,1,1-1.453,1.453,1.456,1.456,0,0,1,1.453-1.453Zm-6.371,0a1.455,1.455,0,1,1-1.456,1.453,1.453,1.453,0,0,1,1.456-1.453Zm-6.374,0a1.455,1.455,0,1,1-1.453,1.453,1.456,1.456,0,0,1,1.453-1.453Zm-6.371-13.157a1.455,1.455,0,1,1-1.457,1.453,1.452,1.452,0,0,1,1.457-1.453Zm70.1,0a1.455,1.455,0,1,1-1.456,1.453,1.453,1.453,0,0,1,1.456-1.453Zm-6.373,0a1.455,1.455,0,1,1-1.453,1.453,1.454,1.454,0,0,1,1.453-1.453Zm-6.372,0a1.455,1.455,0,1,1-1.456,1.453,1.452,1.452,0,0,1,1.456-1.453Zm-6.374,0a1.455,1.455,0,1,1-1.453,1.453,1.452,1.452,0,0,1,1.453-1.453Zm-6.372,0a1.455,1.455,0,1,1-1.456,1.453,1.451,1.451,0,0,1,1.456-1.453Zm-6.374,0a1.455,1.455,0,1,1-1.453,1.453,1.452,1.452,0,0,1,1.453-1.453Zm-6.375,0a1.455,1.455,0,1,1-1.453,1.453,1.452,1.452,0,0,1,1.453-1.453Zm-6.371,0a1.455,1.455,0,1,1-1.456,1.453,1.452,1.452,0,0,1,1.456-1.453Zm-6.374,0a1.455,1.455,0,1,1-1.453,1.453,1.454,1.454,0,0,1,1.453-1.453Zm-6.371,0a1.455,1.455,0,1,1-1.456,1.453,1.451,1.451,0,0,1,1.456-1.453Zm-6.374,0a1.455,1.455,0,1,1-1.453,1.453,1.454,1.454,0,0,1,1.453-1.453Zm-6.371-13.16a1.455,1.455,0,1,1-1.457,1.454,1.454,1.454,0,0,1,1.457-1.454Zm70.1,0a1.455,1.455,0,1,1-1.456,1.454,1.455,1.455,0,0,1,1.456-1.454Zm-6.373,0a1.455,1.455,0,1,1-1.453,1.454,1.457,1.457,0,0,1,1.453-1.454Zm-6.372,0a1.455,1.455,0,1,1-1.456,1.454,1.454,1.454,0,0,1,1.456-1.454Zm-6.374,0a1.455,1.455,0,1,1-1.453,1.454,1.454,1.454,0,0,1,1.453-1.454Zm-6.372,0a1.455,1.455,0,1,1-1.456,1.454,1.453,1.453,0,0,1,1.456-1.454Zm-6.374,0a1.455,1.455,0,1,1-1.453,1.454,1.454,1.454,0,0,1,1.453-1.454Zm-6.375,0a1.455,1.455,0,1,1-1.453,1.454A1.455,1.455,0,0,1,511.7,611.9Zm-6.371,0a1.455,1.455,0,1,1-1.456,1.454,1.454,1.454,0,0,1,1.456-1.454Zm-6.374,0a1.455,1.455,0,1,1-1.453,1.454,1.457,1.457,0,0,1,1.453-1.454Zm-6.371,0a1.455,1.455,0,1,1-1.456,1.454,1.453,1.453,0,0,1,1.456-1.454Zm-6.374,0a1.455,1.455,0,1,1-1.453,1.454,1.456,1.456,0,0,1,1.453-1.454Zm63.729-13.157a1.453,1.453,0,1,1-1.456,1.453,1.453,1.453,0,0,1,1.456-1.453Zm-6.373,0a1.453,1.453,0,1,1-1.453,1.453,1.455,1.455,0,0,1,1.453-1.453Zm-6.372,0a1.453,1.453,0,1,1-1.456,1.453,1.452,1.452,0,0,1,1.456-1.453Zm-6.374,0a1.453,1.453,0,1,1-1.453,1.453,1.452,1.452,0,0,1,1.453-1.453Zm-6.372,0a1.453,1.453,0,1,1-1.456,1.453,1.452,1.452,0,0,1,1.456-1.453Zm-6.374,0a1.453,1.453,0,1,1-1.453,1.453,1.452,1.452,0,0,1,1.453-1.453Zm-6.375,0a1.453,1.453,0,1,1-1.453,1.453,1.453,1.453,0,0,1,1.453-1.453Zm-6.371,0a1.453,1.453,0,1,1-1.456,1.453,1.452,1.452,0,0,1,1.456-1.453Zm-6.374,0A1.453,1.453,0,1,1,497.5,600.2a1.455,1.455,0,0,1,1.453-1.453Zm-6.371,0a1.453,1.453,0,1,1-1.456,1.453,1.451,1.451,0,0,1,1.456-1.453Zm-6.374,0a1.453,1.453,0,1,1-1.453,1.453A1.455,1.455,0,0,1,486.21,598.743Z" transform="translate(-466.805 -583.41)" fill-rule="evenodd" fill="url(#linear-gradient-5)"/>
  <path id="Path_1148" data-name="Path 1148" d="M479.511,628.209a1.735,1.735,0,1,1,0-3.47h17.313a.494.494,0,0,0,.453-.283l1.944-3.923a1.728,1.728,0,0,1,3.195.227l0,0,1.616,4.884a.51.51,0,0,0,.84.2l.177-.173a1.732,1.732,0,0,1,1.831-.392l.023.008.5.16,7.328-29.386a1.733,1.733,0,0,1,3.4.213h0l4.875,40.026a.51.51,0,0,0,1.006.039l1.941-9.875a1.733,1.733,0,0,1,1.7-1.4h8.78a.5.5,0,0,0,.42-.222,3.509,3.509,0,1,1-.025,3.918.5.5,0,0,0-.426-.227h-6.9a.508.508,0,0,0-.5.411l-4.3,21.9a1.735,1.735,0,0,1-3.425-.13l-5.117-42a.507.507,0,0,0-1-.062l-4.843,19.411h0l-.028.1a.035.035,0,0,1-.005.017,1.73,1.73,0,0,1-2.166,1.118l-1.08-.344a.5.5,0,0,0-.512.123l-1.7,1.683-.02.019a1.731,1.731,0,0,1-2.932-.621l-1.036-3.131a.507.507,0,0,0-.938-.067l-.076.151c-.006.012-.008.019-.014.03a1.733,1.733,0,0,1-1.6,1.065Z" transform="translate(-466.794 -583.335)" fill="url(#linear-gradient-6)"/>
</svg>
