<svg xmlns="http://www.w3.org/2000/svg" xmlns:xlink="http://www.w3.org/1999/xlink" width="221" height="221" viewBox="0 0 221 221">
  <defs>
    <linearGradient id="linear-gradient" x1="0.5" x2="0.5" y2="1" gradientUnits="objectBoundingBox">
      <stop offset="0" stop-color="#1c608d"/>
      <stop offset="1" stop-color="#3192d9"/>
    </linearGradient>
    <filter id="Path_1236" x="47.582" y="51.428" width="126.94" height="126.941" filterUnits="userSpaceOnUse">
      <feOffset dy="3" input="SourceAlpha"/>
      <feGaussianBlur stdDeviation="3" result="blur"/>
      <feFlood flood-opacity="0.569"/>
      <feComposite operator="in" in2="blur"/>
      <feComposite in="SourceGraphic"/>
    </filter>
  </defs>
  <g id="Group_66146" data-name="Group 66146" transform="translate(-0.5 0.344)">
    <g id="Group_1083" data-name="Group 1083" transform="translate(0)">
      <g id="Ellipse_340" data-name="Ellipse 340" transform="translate(0.5 -0.344)" fill="#fff" stroke="#f8f8f8" stroke-width="1">
        <circle cx="110.5" cy="110.5" r="110.5" stroke="none"/>
        <circle cx="110.5" cy="110.5" r="110" fill="none"/>
      </g>
      <g id="Ellipse_341" data-name="Ellipse 341" transform="translate(22.5 22.656)" stroke="#3192d9" stroke-width="3" fill="url(#linear-gradient)">
        <circle cx="88" cy="88" r="88" stroke="none"/>
        <circle cx="88" cy="88" r="86.5" fill="none"/>
      </g>
    </g>
    <g id="Group_1099" data-name="Group 1099" transform="translate(50.721 50.721)">
      <path id="Path_1235" data-name="Path 1235" d="M360.206,1145.955l59.758,59.759a1.066,1.066,0,0,1,0,1.519l-59.758,59.759a1.041,1.041,0,0,1-.762.318,1.029,1.029,0,0,1-.756-.318l-59.762-59.759a1.078,1.078,0,0,1,0-1.519l59.762-59.759A1.073,1.073,0,0,1,360.206,1145.955Z" transform="translate(-298.613 -1145.641)" fill="#fff" fill-rule="evenodd"/>
      <rect id="Rectangle_570" data-name="Rectangle 570" width="83.442" height="83.442" transform="matrix(0.707, -0.707, 0.707, 0.707, 1.829, 60.834)" fill="#a2a2a2"/>
      <g transform="matrix(1, 0, 0, 1, -50.22, -51.07)" filter="url(#Path_1236)">
        <path id="Path_1236-2" data-name="Path 1236" d="M370.716,1208.048l10.976,10.981a5,5,0,0,1,0,7.067l-2.422,2.419a5.008,5.008,0,0,1-7.069,0l-10.15-10.151a1.019,1.019,0,0,1-.147-1.269c.884-1.448.762-3.182.65-5.142a1.032,1.032,0,0,1,1.414-1.02c.9.355,1.916.605,4.7-2.179a3.439,3.439,0,0,0,.461-.557,1.036,1.036,0,0,1,1.591-.154Zm-9.136,1.248c1.676-.369,3.573.791,4.752-.388l1.243-1.243a2.179,2.179,0,0,0,0-3.071l-2.037-2.03,9.3-9.3,3.676-1.526,3.857-6.114-3.6-3.6-6.115,3.854-1.523,3.675-9.3,9.3-2.717-2.717a2.173,2.173,0,0,0-3.069,0l-1.239,1.242c-1.18,1.179-.024,3.072-.392,4.749a.83.83,0,0,1-.844.657q-2.186-.069-4.366-.142a3.09,3.09,0,0,0-2.345.929l-11.467,11.468a5.686,5.686,0,0,0,0,8.032q2.623,2.625,5.244,5.245a5.69,5.69,0,0,0,8.036,0l11.464-11.467a3.079,3.079,0,0,0,.929-2.346c-.048-1.454-.1-2.913-.141-4.367a.822.822,0,0,1,.657-.842Zm-3.431-56.408-52.288,52.29,52.288,52.286,52.29-52.286-52.29-52.29Zm-53.867,50.839a2.044,2.044,0,0,0,0,2.9l52.418,52.422a2.085,2.085,0,0,0,.66.442h.006l0,0a2.112,2.112,0,0,0,.786.157,2.021,2.021,0,0,0,.785-.161l0,0a2.064,2.064,0,0,0,.663-.446l52.422-52.422a1.98,1.98,0,0,0,.6-1.448,2.057,2.057,0,0,0-.153-.788l-.041-.09a2.141,2.141,0,0,0-.4-.573L359.6,1151.309a2.051,2.051,0,0,0-2.9,0l-52.418,52.418Zm37.446,1.935c-9.423-3.47-9.731-15.354-7.29-16.055a1.261,1.261,0,0,1,1.25.323l5.274,5.27a1.126,1.126,0,0,0,1.583,0l5.51-5.511a1.121,1.121,0,0,0,0-1.582l-5.27-5.274a1.271,1.271,0,0,1,.619-2.138,13.109,13.109,0,0,1,15.921,12.2.987.987,0,0,1-.35.817,1,1,0,0,1-.859.24c-1.928-.335-3.252,1.17-4.409,2.33a3.2,3.2,0,0,0-.884,3.582,1.034,1.034,0,0,1-1.034,1.308c-5.123-.19-4.541-.225-8.969,4.244a1.019,1.019,0,0,1-1.092.244Zm32.229,18.648c2.32,2.322,5.844-1.205,3.525-3.526S371.638,1221.99,373.958,1224.31Z" transform="translate(-247.1 -1093.28)" fill="#fff" fill-rule="evenodd"/>
      </g>
    </g>
  </g>
</svg>
