<svg xmlns="http://www.w3.org/2000/svg" width="51.513" height="41.21" viewBox="0 0 51.513 41.21">
  <path id="Icon_awesome-city" data-name="Icon awesome-city" d="M49.581,15.454H38.634V1.932A1.931,1.931,0,0,0,36.7,0H25.112a1.931,1.931,0,0,0-1.932,1.932v5.8H18.029V1.288A1.287,1.287,0,0,0,16.742,0H15.454a1.287,1.287,0,0,0-1.288,1.288V7.727H9.015V1.288A1.287,1.287,0,0,0,7.727,0H6.439A1.287,1.287,0,0,0,5.151,1.288V7.727H1.932A1.931,1.931,0,0,0,0,9.659V38.634A2.576,2.576,0,0,0,2.576,41.21H48.937a2.576,2.576,0,0,0,2.576-2.576V17.385A1.932,1.932,0,0,0,49.581,15.454ZM10.3,32.517a.966.966,0,0,1-.966.966H6.117a.966.966,0,0,1-.966-.966V29.3a.966.966,0,0,1,.966-.966h3.22a.966.966,0,0,1,.966.966Zm0-7.727a.966.966,0,0,1-.966.966H6.117a.966.966,0,0,1-.966-.966v-3.22a.966.966,0,0,1,.966-.966h3.22a.966.966,0,0,1,.966.966Zm0-7.727a.966.966,0,0,1-.966.966H6.117a.966.966,0,0,1-.966-.966v-3.22a.966.966,0,0,1,.966-.966h3.22a.966.966,0,0,1,.966.966Zm10.3,15.454a.966.966,0,0,1-.966.966H16.42a.966.966,0,0,1-.966-.966V29.3a.966.966,0,0,1,.966-.966h3.22a.966.966,0,0,1,.966.966Zm0-7.727a.966.966,0,0,1-.966.966H16.42a.966.966,0,0,1-.966-.966v-3.22a.966.966,0,0,1,.966-.966h3.22a.966.966,0,0,1,.966.966Zm0-7.727a.966.966,0,0,1-.966.966H16.42a.966.966,0,0,1-.966-.966v-3.22a.966.966,0,0,1,.966-.966h3.22a.966.966,0,0,1,.966.966ZM33.483,24.79a.966.966,0,0,1-.966.966H29.3a.966.966,0,0,1-.966-.966v-3.22a.966.966,0,0,1,.966-.966h3.22a.966.966,0,0,1,.966.966Zm0-7.727a.966.966,0,0,1-.966.966H29.3a.966.966,0,0,1-.966-.966v-3.22a.966.966,0,0,1,.966-.966h3.22a.966.966,0,0,1,.966.966Zm0-7.727a.966.966,0,0,1-.966.966H29.3a.966.966,0,0,1-.966-.966V6.117a.966.966,0,0,1,.966-.966h3.22a.966.966,0,0,1,.966.966ZM46.361,32.517a.966.966,0,0,1-.966.966h-3.22a.966.966,0,0,1-.966-.966V29.3a.966.966,0,0,1,.966-.966H45.4a.966.966,0,0,1,.966.966Zm0-7.727a.966.966,0,0,1-.966.966h-3.22a.966.966,0,0,1-.966-.966v-3.22a.966.966,0,0,1,.966-.966H45.4a.966.966,0,0,1,.966.966Z" fill="#3192d9"/>
</svg>
