<svg xmlns="http://www.w3.org/2000/svg" width="19.199" height="19.199" viewBox="0 0 19.199 19.199">
  <path id="Icon_material-photo-library" data-name="Icon material-photo-library" d="M22.2,16.439V4.92A1.926,1.926,0,0,0,20.279,3H8.76A1.926,1.926,0,0,0,6.84,4.92V16.439a1.926,1.926,0,0,0,1.92,1.92H20.279A1.926,1.926,0,0,0,22.2,16.439ZM11.64,12.6l1.949,2.6,2.851-3.561,3.84,4.8H8.76ZM3,6.84V20.279A1.926,1.926,0,0,0,4.92,22.2H18.359v-1.92H4.92V6.84Z" transform="translate(-3 -3)" fill="#fff"/>
</svg>
