<svg xmlns="http://www.w3.org/2000/svg" xmlns:xlink="http://www.w3.org/1999/xlink" width="158.561" height="227.909" viewBox="0 0 158.561 227.909">
  <defs>
    <radialGradient id="radial-gradient" cx="0.5" cy="0.5" r="2.932" gradientUnits="objectBoundingBox">
      <stop offset="0" stop-color="#1c608d" stop-opacity="0.502"/>
      <stop offset="1" stop-color="#fff" stop-opacity="0"/>
    </radialGradient>
  </defs>
  <g id="Group_22" data-name="Group 22" transform="translate(-361.562 -299.433)">
    <path id="Path_1" data-name="Path 1" d="M507.987,532.043l-8.885,4.924a2.306,2.306,0,0,1-2.789-.444l-5.676-6.084a65.726,65.726,0,0,1-15.7,3.924l-2.148,8.021a2.3,2.3,0,0,1-2.258,1.7L460.38,543.9a2.267,2.267,0,0,1-2.184-1.765l-1.876-8.107a66.886,66.886,0,0,1-15.548-4.454l-5.886,5.873a2.278,2.278,0,0,1-2.789.346l-8.712-5.233a2.287,2.287,0,0,1-1.012-2.628l2.431-7.947-.222-.185a18.666,18.666,0,0,0,8.515-2.949,59.169,59.169,0,0,0,62.379,3.1,55.119,55.119,0,0,0,5.1-3.184,17.593,17.593,0,0,0,8.342,3.085c-.641.53-1.308,1.049-1.975,1.555l2.148,8.046A2.291,2.291,0,0,1,507.987,532.043Z" transform="translate(-25.942 -92.871)" fill="#2777b2"/>
    <path id="Path_2" data-name="Path 2" d="M519.26,371.573l-.172,10.156a1.552,1.552,0,0,1-.025.247,19.829,19.829,0,0,0-12.34-7.91l-.161-.025-4.023-.013a59.174,59.174,0,0,0-118.316-.148H379.83l-.346.1a24.6,24.6,0,0,0-11.291,6.8,2.292,2.292,0,0,1-.716-1.7l.186-10.156a2.266,2.266,0,0,1,1.764-2.184l8.107-1.876a66.874,66.874,0,0,1,4.455-15.548l-5.874-5.887a2.294,2.294,0,0,1-.345-2.8l5.232-8.7a2.288,2.288,0,0,1,2.629-1.012l7.947,2.431A66.25,66.25,0,0,1,403.227,322.1l-2.16-8.033a2.283,2.283,0,0,1,1.11-2.591l8.872-4.924a2.306,2.306,0,0,1,2.789.444l5.676,6.072a65.715,65.715,0,0,1,15.7-3.912l2.16-8.034a2.289,2.289,0,0,1,2.246-1.69l10.156.173a2.292,2.292,0,0,1,2.184,1.777l1.875,8.107a66.877,66.877,0,0,1,15.548,4.454l5.887-5.873a2.3,2.3,0,0,1,2.8-.346l8.7,5.233a2.281,2.281,0,0,1,1.011,2.628l-2.431,7.947a66.161,66.161,0,0,1,11.242,11.637l8.034-2.147a2.281,2.281,0,0,1,2.591,1.11l4.924,8.873a2.3,2.3,0,0,1-.444,2.789l-6.071,5.676a66.372,66.372,0,0,1,3.924,15.7l8.021,2.147A2.3,2.3,0,0,1,519.26,371.573Z" transform="translate(-2.528)" fill="#1c608d"/>
    <path id="Path_3" data-name="Path 3" d="M417.363,439.6l-47.633.168a9.065,9.065,0,0,0-3.232.609c-.673.256-1.347.521-2.021.778a18.7,18.7,0,0,1,2.6-7.233c1.909-2.911,5.421-6.3,11.844-8.244H398.47l7.714-10.8a41.6,41.6,0,0,0,1.163,6.118,48.465,48.465,0,0,0,9.078,17.626l.04.048.048.048C416.794,439.013,417.074,439.3,417.363,439.6Z" transform="translate(-1.246 -49.331)" fill="#2777b2"/>
    <path id="Path_4" data-name="Path 4" d="M595.217,439.342q-25.885.1-51.771.184c.232-.241.465-.473.69-.714l.1-.1A47.348,47.348,0,0,0,554.456,415.1c7.089,10.369,7.241,10.754,7.241,10.754l19.871.08A17.674,17.674,0,0,1,595.217,439.342Z" transform="translate(-77.723 -49.427)" fill="#2777b2"/>
    <path id="Path_5" data-name="Path 5" d="M463.513,463.76c-3.288,3.184-6.768,6.279-10.385,9.23-2.967,2.43-6.134,4.819-9.438,7.113l-1.6,1.114-.909-.625c-3.536-2.43-6.952-4.987-10.152-7.6-3.593-2.927-7.065-6.022-10.369-9.23H369.465a6.78,6.78,0,0,0-2.334.16,3.5,3.5,0,0,0-2.67,3.544l.393,9.374s-.24,4.2,6.062,5.413h8.8s3.072,12.117,17.2,12.526,17.129-12.445,17.129-12.445l14.378-.08h41.354s4.667,13.391,17.69,12.534a18.888,18.888,0,0,0,16.663-12.373l9.631-.176s5.2-.489,5.389-5.573.545-12.9.545-12.9Z" transform="translate(-1.238 -70.205)" fill="#1c608d"/>
    <ellipse id="Ellipse_1" data-name="Ellipse 1" cx="16.147" cy="2.753" rx="16.147" ry="2.753" transform="translate(424.701 415.206)" fill="url(#radial-gradient)"/>
    <g id="Group_2" data-name="Group 2" transform="translate(440.848 328.291)">
      <g id="Group_1" data-name="Group 1" transform="translate(0)">
        <path id="Path_6" data-name="Path 6" d="M532.723,381.444c-.008-.076-.008-.16-.015-.243a35.847,35.847,0,0,0-.623-5.174,31.124,31.124,0,0,0-1.967-6.48c-4.506-10.7-15.286-18.31-26.834-19.555a29.432,29.432,0,0,0-3.275-.167v7.407c.41.015.813.038,1.223.069.121.007.243.015.365.03.106.007.221.015.326.03.175.015.349.03.517.053.144.022.289.038.433.061.107.007.213.03.32.045l.136.023.434.069c.091.015.182.03.281.053s.19.038.288.053c.129.03.251.053.38.084.076.015.144.03.213.046l.319.068c.137.038.274.069.418.107a.727.727,0,0,1,.107.03c.121.03.251.061.38.1s.243.068.365.106c.023.008.053.015.076.023.159.046.326.091.478.144.167.053.327.107.486.16.19.068.372.129.555.2.106.038.212.076.311.121s.228.084.342.129c.775.312,1.535.653,2.264,1.034.167.084.334.175.494.266s.334.182.494.273c.061.031.121.069.175.1l.342.2c.061.038.121.076.19.114.091.061.19.121.289.183s.175.114.266.175c.137.084.274.175.4.266s.258.175.388.266c.053.038.106.076.152.114.114.076.221.16.335.236.045.038.091.068.129.106.152.107.3.22.448.334s.266.213.4.327l.114.092c.144.121.289.243.433.372.122.1.235.205.357.311.661.592,1.291,1.223,1.892,1.876.121.137.251.281.372.426.137.152.274.312.4.471.114.137.22.273.334.41.175.22.342.441.509.661l.251.342c.03.046.061.083.091.129.076.107.152.212.22.319.061.084.122.175.183.258l.3.456c.061.091.122.182.175.274.068.1.129.2.19.3.03.061.061.114.091.167.069.107.129.212.2.326.084.152.175.3.258.464.1.182.206.364.3.547s.19.365.273.547c.121.243.243.486.349.737.129.281.259.57.372.858.129.3.251.623.373.935.045.121.091.25.129.372a.4.4,0,0,1,.03.091c.061.159.114.319.167.479.015.053.038.114.053.167.046.129.083.259.121.4l.091.3c.03.1.061.205.084.312.03.091.053.182.076.273.038.114.061.236.091.349a1.152,1.152,0,0,1,.038.16c.053.19.092.38.137.57.038.152.069.3.1.456.015.114.045.221.061.334.007.023.007.053.015.076.038.167.061.334.091.5.023.121.038.243.061.365.045.281.084.57.114.851.022.167.045.342.061.508l.023.206-12.346,8.911a7.073,7.073,0,0,0-8.266.076,7.22,7.22,0,1,0,8.517,11.661,7.376,7.376,0,0,0,2.8-7.977l9.23-6.708c-1.413,12.931-10.932,23.042-24.577,23.574a4.406,4.406,0,0,1-.448.023v17.869c3.054-2.1,6.253-4.468,9.5-7.126a151.469,151.469,0,0,0,11.943-10.833c.57-.585,1.132-1.163,1.679-1.732,2.545-3.161,8.714-11.632,9.527-23.3A37.708,37.708,0,0,0,532.723,381.444ZM510.516,398.3a3,3,0,1,1,.653-4.186A3,3,0,0,1,510.516,398.3Z" transform="translate(-500.009 -349.824)" fill="#1c608d"/>
      </g>
    </g>
    <g id="Group_19" data-name="Group 19" transform="translate(408.099 328.291)">
      <g id="Group_18" data-name="Group 18" transform="translate(0)">
        <g id="Group_3" data-name="Group 3" transform="translate(16.361 25.61)">
          <path id="Path_7" data-name="Path 7" d="M471.706,394.544l.3.517c-.205-.114-.41-.228-.615-.334Z" transform="translate(-471.394 -394.544)" fill="#2777b2"/>
        </g>
        <g id="Group_4" data-name="Group 4" transform="translate(20.798 32.524)">
          <path id="Path_8" data-name="Path 8" d="M479.46,407.141l-.319.19c.008-.236.008-.479.008-.714Z" transform="translate(-479.141 -406.617)" fill="#2777b2"/>
        </g>
        <g id="Group_5" data-name="Group 5" transform="translate(20.79 37.158)">
          <path id="Path_9" data-name="Path 9" d="M479.333,415.112c-.068.038-.137.084-.205.121v-.524Z" transform="translate(-479.128 -414.709)" fill="#2777b2"/>
        </g>
        <g id="Group_6" data-name="Group 6" transform="translate(9.341 23.658)">
          <path id="Path_10" data-name="Path 10" d="M459.311,391.135a1.041,1.041,0,0,0-.061.167l-.114-.061Z" transform="translate(-459.136 -391.135)" fill="#2777b2"/>
        </g>
        <g id="Group_7" data-name="Group 7" transform="translate(34.177 81.496)">
          <path id="Path_11" data-name="Path 11" d="M502.5,492.131h.091v.061Z" transform="translate(-502.503 -492.131)" fill="#2777b2"/>
        </g>
        <g id="Group_8" data-name="Group 8">
          <path id="Path_12" data-name="Path 12" d="M452.34,373.482l-.175.107.114.061c-.046.106-.092.212-.129.319s-.091.22-.129.326-.084.228-.122.342c-.015.046-.03.092-.045.129-.053.159-.107.312-.16.471s-.107.32-.152.479-.1.327-.144.494c-.008.031-.015.053-.023.076a4.468,4.468,0,0,0-.114.433,1.568,1.568,0,0,0-.069.251c-.038.129-.068.251-.1.38-.015.076-.038.152-.053.228-.03.122-.053.251-.084.38a1.82,1.82,0,0,0-.038.2c-.038.167-.068.342-.1.509a.231.231,0,0,0-.015.076c-.023.1-.038.2-.061.312l-.023.137-.046.3c-.022.129-.038.258-.053.4a.538.538,0,0,0-.022.152c-.023.16-.046.32-.061.479l-.023.183-.046.478a.478.478,0,0,0-.007.107c-.023.19-.038.38-.046.577v.008c-.015.2-.022.41-.03.615a.029.029,0,0,0-.007.023l8.585-5,2.894,4.847c-2.271,1.36-6.739,3.943-11.069,6.45a.384.384,0,0,0,.015.091c.015.091.03.19.046.281.022.114.045.235.068.349.015.091.038.19.061.281.016.114.046.228.068.342.016.076.031.144.053.221.031.159.069.311.107.463.008.045.023.084.03.129.038.16.076.319.122.471.083.3.167.593.25.889.046.16.1.319.152.471.061.2.122.388.19.578.015.038.023.076.038.114.053.144.1.281.152.425.03.076.053.144.084.212.053.16.114.319.182.479.076.19.16.387.243.585s.167.388.25.578.175.38.274.57v.007q.24.5.5.98a2.042,2.042,0,0,0,.121.228c.068.137.152.274.221.4.022.046.045.084.068.122.076.129.152.25.228.38.03.053.069.114.1.167.076.129.159.25.235.38.023.03.038.061.061.091.106.167.212.335.319.494l.357.517c.274.387.555.767.851,1.132.076.1.152.2.236.289.038.046.068.092.106.129.084.107.167.2.251.3.175.213.357.418.547.623.114.121.228.251.35.372l.015.016c.121.137.251.266.38.4.281.281.57.554.866.828.1.091.2.175.3.266.2.175.387.342.592.5.069.061.144.122.213.183.1.076.19.152.289.22.114.1.235.182.349.273s.228.175.342.258a23.047,23.047,0,0,0,2.135,1.375c.106.061.212.129.319.19l.137.068c.129.076.266.145.4.213s.281.144.417.212c.1.053.2.107.3.152s.213.1.319.152c.251.114.5.228.752.334.16.068.312.137.471.2a.493.493,0,0,1,.076.03c.137.053.273.107.418.159.046.015.084.038.129.053.114.038.228.076.342.121.076.031.152.053.235.084.1.031.2.069.311.1.129.045.258.084.388.129a.21.21,0,0,0,.068.015c.19.068.38.122.577.175.007,0,.023.007.03.007.19.053.372.106.562.152l.091.022c.2.053.4.1.608.145s.433.1.653.144.434.084.653.121.418.068.63.1a.632.632,0,0,0,.122.015c.144.023.3.045.44.061.114.023.221.03.334.046.091.007.19.022.281.03.121.015.251.022.38.038l.57.046.4.022c.106.008.22.015.326.015.046,0,.091.008.137.008.137.007.266.015.411.015l.076.152v17.717c-3.062-2.1-6.26-4.468-9.512-7.126-3.115-2.538-5.979-5.075-8.6-7.567q-1.664-1.573-3.191-3.122c-.631-.631-1.238-1.254-1.831-1.877a44.5,44.5,0,0,1-8.319-16.137,37.349,37.349,0,0,1-1.094-5.88c-.045-.471-.091-.942-.114-1.428a34.282,34.282,0,0,1-.045-4.156,33.474,33.474,0,0,1,2.591-11.654c4.5-10.7,15.293-18.31,26.833-19.555a29.473,29.473,0,0,1,3.282-.167v7.407a25.049,25.049,0,0,0-2.522.2c-.107.007-.213.023-.312.038-.129.015-.266.038-.4.061-.19.022-.372.061-.555.091s-.387.068-.577.107H471.2c-.16.038-.327.068-.494.106-.045.016-.1.023-.144.038a4.049,4.049,0,0,0-.4.091c-.259.061-.525.129-.783.205-.167.046-.327.091-.486.144a.845.845,0,0,0-.129.038c-.106.03-.213.061-.32.1s-.22.068-.326.107c-.076.022-.144.053-.221.076-.129.038-.258.091-.38.137-.167.061-.334.121-.5.19s-.334.129-.494.2-.319.129-.479.2a1.275,1.275,0,0,0-.182.076c-.107.045-.206.091-.3.136s-.175.084-.258.122-.2.1-.3.144c-.076.038-.152.076-.236.121-.121.053-.243.121-.364.19-.137.068-.281.144-.418.22-.121.061-.243.129-.357.2-.084.046-.16.091-.236.137a2.928,2.928,0,0,0-.258.152c-.091.053-.182.107-.273.167a1.3,1.3,0,0,0-.213.137c-.1.053-.2.121-.3.182l-.274.183c-.137.091-.266.175-.4.266s-.266.19-.4.281c-.022.015-.038.03-.061.045-.129.1-.266.2-.4.3l-.4.3c-.1.076-.19.152-.289.235s-.2.159-.289.235c-.129.107-.258.221-.387.326-.076.061-.144.129-.22.2-.1.084-.2.175-.3.266-.159.152-.319.3-.478.448l-.388.388c-.144.137-.281.281-.418.425a26.659,26.659,0,0,0-2.993,3.784c-.106.167-.22.342-.32.509s-.213.342-.319.525c-.091.152-.182.312-.273.471-.015.023-.023.046-.038.069-.091.167-.19.342-.281.517s-.19.365-.273.547-.183.365-.266.547c-.068.144-.136.289-.2.433a.833.833,0,0,0-.076.167c-.061.129-.114.258-.167.388A3.113,3.113,0,0,0,452.34,373.482Z" transform="translate(-442.824 -349.824)" fill="#2777b2"/>
        </g>
        <g id="Group_9" data-name="Group 9" transform="translate(9.341 23.658)">
          <path id="Path_13" data-name="Path 13" d="M459.136,391.242l.175-.107a1.041,1.041,0,0,0-.061.167Z" transform="translate(-459.136 -391.135)" fill="#2777b2"/>
        </g>
        <g id="Group_10" data-name="Group 10" transform="translate(32.673 60.801)">
          <path id="Path_14" data-name="Path 14" d="M499.953,455.994v.152l-.076-.152Z" transform="translate(-499.877 -455.994)" fill="#2777b2"/>
        </g>
        <g id="Group_12" data-name="Group 12" transform="translate(9.341 16.577)">
          <g id="Group_11" data-name="Group 11">
            <path id="Path_15" data-name="Path 15" d="M459.136,385.958l.114.061a1.038,1.038,0,0,1,.061-.167Zm21.234-1.588c-.365-.608-.752-1.2-1.163-1.786.411.616.821,1.262,1.231,1.945.525.873.988,1.724,1.406,2.552C481.4,386.148,480.894,385.244,480.37,384.37Zm.479,4.14c-.084-.182-.167-.357-.251-.532-.433-.9-.942-1.854-1.527-2.818q-.717-1.186-1.459-2.211c-.03-.045-.061-.084-.091-.129a34.779,34.779,0,0,0-3.4-4.049l-11.9,7.111c1.314.707,2.621,1.405,3.935,2.1.2.106.41.22.615.334.183.092.365.19.547.289l.388.205c.388.805.851,1.687,1.405,2.6.494.828,1,1.573,1.49,2.233v1.071c0,.235,0,.478-.008.714,0,1.306,0,2.613-.007,3.92v.524c.068-.038.137-.084.205-.121q5.846-3.5,11.7-7A35.93,35.93,0,0,0,480.849,388.511Zm-6.283,1.77a1.958,1.958,0,1,1,.676-2.682,1.9,1.9,0,0,1,.258.737A1.958,1.958,0,0,1,474.566,390.281Z" transform="translate(-459.136 -378.771)" fill="#2777b2"/>
          </g>
        </g>
        <g id="Group_14" data-name="Group 14" transform="translate(12.426 16.577)">
          <g id="Group_13" data-name="Group 13">
            <path id="Path_16" data-name="Path 16" d="M483.151,388.511c-.084-.182-.167-.357-.251-.532-.433-.9-.942-1.854-1.527-2.818q-.717-1.186-1.459-2.211c-.03-.045-.061-.084-.091-.129a34.785,34.785,0,0,0-3.4-4.049l-11.9,7.111c1.314.707,2.621,1.405,3.935,2.1.205.106.41.22.615.334.183.092.365.19.547.289l.388.205c.388.805.851,1.687,1.405,2.6.494.828,1,1.573,1.49,2.233v1.071c0,.235,0,.478-.008.714,0,1.306,0,2.613-.007,3.92v.524c.068-.038.137-.084.2-.121q5.846-3.5,11.7-7A35.94,35.94,0,0,0,483.151,388.511Zm-6.283,1.77a1.958,1.958,0,1,1,.676-2.682,1.9,1.9,0,0,1,.258.737A1.958,1.958,0,0,1,476.867,390.281Z" transform="translate(-464.522 -378.771)" fill="#2777b2"/>
          </g>
        </g>
        <g id="Group_15" data-name="Group 15" transform="translate(27.818 20.756)">
          <path id="Path_17" data-name="Path 17" d="M492.858,388.278c.585.964,1.094,1.914,1.527,2.818-.456-.9-.942-1.792-1.466-2.666-.479-.805-.98-1.588-1.52-2.363Q492.14,387.093,492.858,388.278Z" transform="translate(-491.399 -386.067)" fill="#2777b2"/>
        </g>
        <g id="Group_16" data-name="Group 16" transform="translate(25.759 13.804)">
          <path id="Path_18" data-name="Path 18" d="M496.169,389.837a38.111,38.111,0,0,0-1.481-3.6c-.1-.213-.205-.433-.312-.654-.083-.175-.167-.349-.258-.524l-.023-.046c-.418-.828-.881-1.679-1.406-2.552-.41-.684-.82-1.33-1.231-1.945-.2-.3-.4-.577-.593-.85a42.022,42.022,0,0,0-3.062-3.821l3.191-1.914a56.515,56.515,0,0,1,4.528,6.427,55.792,55.792,0,0,1,3.122,5.911c.258.57.494,1.117.722,1.656Q497.761,388.88,496.169,389.837Z" transform="translate(-487.804 -373.929)" fill="#2777b2"/>
        </g>
        <g id="Group_17" data-name="Group 17" transform="translate(25.759 13.804)">
          <path id="Path_19" data-name="Path 19" d="M499.367,387.923q-1.606.957-3.2,1.914a38.111,38.111,0,0,0-1.481-3.6c-.1-.213-.205-.433-.312-.654-.083-.175-.167-.349-.258-.524l-.023-.046c-.418-.828-.881-1.679-1.406-2.552-.41-.684-.82-1.33-1.231-1.945-.2-.3-.4-.577-.593-.85a42.022,42.022,0,0,0-3.062-3.821l3.191-1.914a56.515,56.515,0,0,1,4.528,6.427,55.792,55.792,0,0,1,3.122,5.911C498.9,386.837,499.139,387.384,499.367,387.923Z" transform="translate(-487.804 -373.929)" fill="#2777b2"/>
        </g>
      </g>
    </g>
    <g id="Group_21" data-name="Group 21" transform="translate(361.562 465.263)">
      <g id="Group_20" data-name="Group 20">
        <path id="Path_20" data-name="Path 20" d="M406.535,591.182a7.874,7.874,0,0,0-2.113,5.829v33.634H380.013a9.214,9.214,0,0,1-3.876-.866,10.739,10.739,0,0,1-3.17-2.146,16.733,16.733,0,0,1-2.211-3.46,8.773,8.773,0,0,1-.928-3.844V610.08a7.231,7.231,0,0,0-2.371-5.573h.065a8.481,8.481,0,0,0-2.371-1.634,12.718,12.718,0,0,0-3.588-.993V620.33a20.13,20.13,0,0,0,1.314,7.271,16.3,16.3,0,0,0,3.877,5.926,18.481,18.481,0,0,0,13.26,5h32.545V591.182a1.448,1.448,0,0,1,.032-.289,1.55,1.55,0,0,0,.033-.289V589a13.245,13.245,0,0,0-3.685.61A6.582,6.582,0,0,0,406.535,591.182Z" transform="translate(-361.562 -589.002)" fill="#1c608d"/>
        <path id="Path_21" data-name="Path 21" d="M410.364,613.731h-5.829a9.567,9.567,0,0,1,.287-1.7,5,5,0,0,1,.706-1.57,3.524,3.524,0,0,1,1.249-1.121,3.584,3.584,0,0,1,1.922-.352l.449-1.472v-.065c0-.043.009-.065.031-.065s.033-.021.033-.063q.128-.32.449-1.025a19.8,19.8,0,0,1,.96-1.794h-2.178a.182.182,0,0,1-.128-.064,7.59,7.59,0,0,0-5.959,2.722,10.68,10.68,0,0,0-2.433,6.567h-2.115V618.6h12.557Z" transform="translate(-377.05 -595.6)" fill="#1c608d"/>
        <path id="Path_22" data-name="Path 22" d="M560.234,617.013a23.8,23.8,0,0,0-5.925-3.875A17.22,17.22,0,0,0,547.1,611.7a18.508,18.508,0,0,0-7.238,1.346,18.165,18.165,0,0,0-5.7,3.779,19.339,19.339,0,0,0-4.1,5.894,17.631,17.631,0,0,0-1.409,7.175v10.315H515.326l.064-9.994a17.5,17.5,0,0,0-1.44-7.079,19.219,19.219,0,0,0-4.068-5.926,22.421,22.421,0,0,0-5.831-3.748A17.375,17.375,0,0,0,497,612.081H485.92a9.432,9.432,0,0,0,.768,3.684,8.323,8.323,0,0,0,1.731,2.274,8.864,8.864,0,0,0,2.37,1.474,7.408,7.408,0,0,0,2.948.576H497a9.112,9.112,0,0,1,6.919,3.012,12.8,12.8,0,0,1,2.211,3.268,9.04,9.04,0,0,1,.8,3.844v9.994H475.926v-28.83a11.65,11.65,0,0,0-3.971,1.186,15.04,15.04,0,0,0-2.948,2.082q-1.282,1.281-1.281,4.932v41.066a9.666,9.666,0,0,0,3.492-.8,8.829,8.829,0,0,0,2.532-1.762,6.567,6.567,0,0,0,1.6-2.435,8.54,8.54,0,0,0,.576-3.138v-4.421h71.112a18.615,18.615,0,0,0,13.2-5,16.49,16.49,0,0,0,3.973-6.022,20.184,20.184,0,0,0,1.282-7.175A17.932,17.932,0,0,0,560.234,617.013Zm-3.844,16.656a21.438,21.438,0,0,1-2.05,3.588,13.034,13.034,0,0,1-3.362,2.147,9.53,9.53,0,0,1-3.876.8h-9.8V629.89a8.861,8.861,0,0,1,.865-3.779,16.983,16.983,0,0,1,2.08-3.4,13.139,13.139,0,0,1,3.236-2.146,8.4,8.4,0,0,1,3.62-.864,9.682,9.682,0,0,1,3.812.832,10.755,10.755,0,0,1,3.427,2.306v-.064a13.1,13.1,0,0,1,2.083,3.267,9.314,9.314,0,0,1,.8,3.844A9.153,9.153,0,0,1,556.39,633.669Z" transform="translate(-406.928 -598.562)" fill="#1c608d"/>
      </g>
    </g>
  </g>
</svg>
