<svg xmlns="http://www.w3.org/2000/svg" xmlns:xlink="http://www.w3.org/1999/xlink" width="292" height="127.679" viewBox="0 0 292 127.679">
  <defs>
    <radialGradient id="radial-gradient" cx="0.5" cy="0.5" r="2.932" gradientUnits="objectBoundingBox">
      <stop offset="0" stop-color="#1c608d" stop-opacity="0.502"/>
      <stop offset="1" stop-color="#fff" stop-opacity="0"/>
    </radialGradient>
  </defs>
  <g id="Group_66220" data-name="Group 66220" transform="translate(-169.562 -299.433)">
    <g id="Group_23" data-name="Group 23" transform="translate(330.992 299.433)">
      <path id="Path_1" data-name="Path 1" d="M494.413,529.623l-7.478,4.144a1.94,1.94,0,0,1-2.347-.374l-4.777-5.12a55.321,55.321,0,0,1-13.21,3.3l-1.807,6.751a1.936,1.936,0,0,1-1.9,1.433l-8.547-.156a1.908,1.908,0,0,1-1.838-1.485l-1.579-6.823a56.3,56.3,0,0,1-13.086-3.749l-4.954,4.943a1.917,1.917,0,0,1-2.347.291l-7.332-4.4a1.925,1.925,0,0,1-.852-2.212l2.046-6.688-.187-.156a15.711,15.711,0,0,0,7.166-2.482,49.8,49.8,0,0,0,52.5,2.607,46.425,46.425,0,0,0,4.29-2.679,14.807,14.807,0,0,0,7.021,2.6c-.54.446-1.1.883-1.662,1.309l1.807,6.771A1.928,1.928,0,0,1,494.413,529.623Z" transform="translate(-394.449 -412.082)" fill="#2777b2"/>
      <path id="Path_2" data-name="Path 2" d="M495.135,360.148l-.145,8.548a1.313,1.313,0,0,1-.021.208,16.674,16.674,0,0,0-10.379-6.657l-.135-.021-3.383-.011a49.768,49.768,0,0,0-99.51-.124h-3.695l-.291.083a20.692,20.692,0,0,0-9.5,5.723,1.93,1.93,0,0,1-.6-1.433l.156-8.547a1.906,1.906,0,0,1,1.484-1.838l6.819-1.579a56.317,56.317,0,0,1,3.747-13.086l-4.94-4.954a1.932,1.932,0,0,1-.29-2.357l4.4-7.322a1.923,1.923,0,0,1,2.211-.852l6.683,2.046a55.737,55.737,0,0,1,9.8-9.461l-1.816-6.761a1.921,1.921,0,0,1,.934-2.181l7.462-4.144a1.938,1.938,0,0,1,2.346.374l4.774,5.11a55.238,55.238,0,0,1,13.2-3.292l1.816-6.761a1.926,1.926,0,0,1,1.889-1.423l8.541.146a1.928,1.928,0,0,1,1.837,1.5l1.577,6.823a56.219,56.219,0,0,1,13.077,3.749l4.951-4.943a1.929,1.929,0,0,1,2.356-.291l7.317,4.4a1.92,1.92,0,0,1,.851,2.212l-2.045,6.688a55.67,55.67,0,0,1,9.455,9.794l6.757-1.807a1.918,1.918,0,0,1,2.179.935l4.141,7.467a1.941,1.941,0,0,1-.374,2.347l-5.106,4.777a55.9,55.9,0,0,1,3.3,13.211l6.746,1.807A1.939,1.939,0,0,1,495.135,360.148Z" transform="translate(-366.022 -299.433)" fill="#1c608d"/>
      <path id="Path_3" data-name="Path 3" d="M408.987,435.684l-40.09.142a7.63,7.63,0,0,0-2.72.513c-.567.216-1.134.438-1.7.654a15.736,15.736,0,0,1,2.187-6.087c1.606-2.45,4.562-5.3,9.968-6.938h16.455l6.492-9.091a35,35,0,0,0,.979,5.15,40.791,40.791,0,0,0,7.64,14.835l.034.041.041.04C408.508,435.191,408.745,435.434,408.987,435.684Z" transform="translate(-364.468 -359.269)" fill="#2777b2"/>
      <path id="Path_4" data-name="Path 4" d="M587.018,435.5q-21.786.081-43.572.155c.2-.2.391-.4.58-.6l.081-.081a39.849,39.849,0,0,0,8.6-19.876c5.966,8.727,6.095,9.051,6.095,9.051l16.724.067A14.875,14.875,0,0,1,587.018,435.5Z" transform="translate(-457.265 -359.385)" fill="#2777b2"/>
      <path id="Path_5" data-name="Path 5" d="M447.769,463.754c-2.766,2.679-5.693,5.284-8.734,7.768-2.5,2.045-5.159,4.056-7.938,5.986l-1.347.938-.764-.526c-2.974-2.045-5.847-4.2-8.538-6.4-3.022-2.463-5.942-5.069-8.721-7.768H368.669a5.7,5.7,0,0,0-1.963.135,2.949,2.949,0,0,0-2.246,2.983l.33,7.89s-.2,3.536,5.1,4.556H377.3s2.584,10.2,14.467,10.542,14.406-10.475,14.406-10.475l12.093-.067h34.782s3.925,11.271,14.878,10.549a15.889,15.889,0,0,0,14.015-10.414l8.1-.148s4.377-.412,4.532-4.691.459-10.859.459-10.859Z" transform="translate(-364.458 -384.589)" fill="#1c608d"/>
      <ellipse id="Ellipse_1" data-name="Ellipse 1" cx="13.59" cy="2.317" rx="13.59" ry="2.317" transform="translate(51.7 97.382)" fill="url(#radial-gradient)"/>
      <g id="Group_2" data-name="Group 2" transform="translate(65.278 24.288)">
        <g id="Group_1" data-name="Group 1" transform="translate(0)">
          <path id="Path_6" data-name="Path 6" d="M527.542,376.436c-.007-.064-.007-.134-.013-.2a30.177,30.177,0,0,0-.524-4.354,26.2,26.2,0,0,0-1.656-5.454c-3.792-9-12.865-15.41-22.584-16.458a24.749,24.749,0,0,0-2.756-.141v6.234c.345.013.684.032,1.029.058.1.006.2.012.307.026s.186.012.275.026c.147.012.294.026.435.045.121.019.243.032.364.051.09.006.179.025.269.038l.115.019.365.058c.077.013.153.026.237.044s.16.032.242.045c.109.026.211.045.32.07l.179.039.268.057c.115.032.23.058.352.09a.605.605,0,0,1,.09.026c.1.026.211.051.32.083s.2.057.307.089l.064.019c.134.039.275.077.4.122s.275.09.409.135c.16.057.313.108.467.166.09.032.179.064.262.1s.192.07.288.109c.652.262,1.292.55,1.905.87.141.07.281.147.416.224s.281.153.415.23c.051.026.1.058.147.083l.288.172c.051.032.1.064.16.1.077.051.159.1.243.154s.147.1.224.147c.115.07.23.147.339.224s.217.147.326.224c.045.032.089.064.128.1.1.064.186.134.282.2.038.032.077.057.108.089.128.09.25.185.377.281s.224.179.339.275l.1.077c.122.1.243.2.364.313.1.083.2.173.3.262.556.5,1.087,1.029,1.592,1.579.1.115.211.237.313.358s.23.262.339.4c.1.115.185.23.281.345.147.186.288.371.428.556l.211.288c.026.039.051.07.077.109.064.09.128.179.185.268.052.07.1.147.154.217l.249.384c.051.077.1.153.148.23s.109.166.16.249c.026.051.051.1.077.141.058.09.109.179.166.275.07.128.147.256.217.39.083.153.173.306.25.46s.159.307.23.46c.1.2.2.409.294.62.109.237.218.48.313.722s.211.524.314.787c.038.1.077.211.109.313a.348.348,0,0,1,.026.076c.051.134.1.268.141.4.013.045.032.1.045.14.039.109.07.218.1.333l.077.25c.026.083.051.172.07.262s.045.153.064.23c.032.1.051.2.076.294a.922.922,0,0,1,.032.134c.045.16.077.32.115.48.032.128.058.256.083.384.013.1.038.186.051.281.006.019.006.045.012.064.032.141.052.281.077.422.019.1.032.2.052.307.038.237.07.479.1.716.019.14.038.288.051.428l.019.173-10.391,7.5a5.953,5.953,0,0,0-6.957.064,6.077,6.077,0,1,0,7.168,9.815,6.208,6.208,0,0,0,2.353-6.714l7.769-5.646c-1.189,10.883-9.2,19.393-20.685,19.841a3.7,3.7,0,0,1-.377.019v15.039c2.57-1.771,5.262-3.76,8-6a127.478,127.478,0,0,0,10.052-9.118c.48-.493.952-.978,1.413-1.458a35.987,35.987,0,0,0,8.018-19.611A31.706,31.706,0,0,0,527.542,376.436Zm-18.69,14.189a2.523,2.523,0,1,1,.55-3.523A2.526,2.526,0,0,1,508.852,390.625Z" transform="translate(-500.009 -349.824)" fill="#1c608d"/>
        </g>
      </g>
      <g id="Group_19" data-name="Group 19" transform="translate(37.737 24.288)">
        <g id="Group_18" data-name="Group 18" transform="translate(0)">
          <g id="Group_3" data-name="Group 3" transform="translate(13.77 21.554)">
            <path id="Path_7" data-name="Path 7" d="M471.656,394.544l.255.435c-.173-.1-.345-.192-.518-.281Z" transform="translate(-471.394 -394.544)" fill="#2777b2"/>
          </g>
          <g id="Group_4" data-name="Group 4" transform="translate(17.504 27.373)">
            <path id="Path_8" data-name="Path 8" d="M479.409,407.058l-.268.16c.007-.2.007-.4.007-.6Z" transform="translate(-479.141 -406.617)" fill="#2777b2"/>
          </g>
          <g id="Group_5" data-name="Group 5" transform="translate(17.498 31.274)">
            <path id="Path_9" data-name="Path 9" d="M479.3,415.048c-.057.032-.115.07-.172.1v-.441Z" transform="translate(-479.128 -414.709)" fill="#2777b2"/>
          </g>
          <g id="Group_6" data-name="Group 6" transform="translate(7.862 19.911)">
            <path id="Path_10" data-name="Path 10" d="M459.283,391.135a.876.876,0,0,0-.051.141l-.1-.051Z" transform="translate(-459.136 -391.135)" fill="#2777b2"/>
          </g>
          <g id="Group_7" data-name="Group 7" transform="translate(28.764 68.59)">
            <path id="Path_11" data-name="Path 11" d="M502.5,492.131h.077v.051Z" transform="translate(-502.503 -492.131)" fill="#2777b2"/>
          </g>
          <g id="Group_8" data-name="Group 8">
            <path id="Path_12" data-name="Path 12" d="M450.833,369.735l-.147.09.1.051c-.038.089-.077.179-.109.268s-.077.185-.108.275-.07.192-.1.288c-.012.039-.025.077-.038.109-.045.134-.09.262-.135.4s-.09.269-.128.4-.083.275-.122.415c-.007.026-.013.045-.019.064q-.058.182-.1.365a1.316,1.316,0,0,0-.058.211c-.032.109-.057.211-.083.32-.013.064-.032.128-.045.192-.026.1-.045.211-.07.32a1.522,1.522,0,0,0-.032.166c-.032.14-.057.288-.083.428a.2.2,0,0,0-.013.064c-.019.083-.032.172-.051.262l-.019.115-.039.249c-.019.109-.032.217-.045.333a.453.453,0,0,0-.019.128c-.019.134-.039.269-.051.4l-.019.154-.039.4a.4.4,0,0,0-.006.09c-.019.16-.032.32-.039.486v.007c-.013.172-.019.345-.026.518a.024.024,0,0,0-.006.019l7.225-4.207,2.436,4.08c-1.912,1.144-5.672,3.318-9.316,5.429a.328.328,0,0,0,.013.077c.013.077.026.16.039.237.019.1.038.2.057.294.013.077.032.16.051.237.013.1.039.192.057.288.013.064.026.121.045.186.026.134.058.262.09.39.006.038.019.07.026.108.032.134.064.268.1.4.07.255.14.5.211.748.039.135.083.268.128.4.052.166.1.326.16.486.013.032.019.064.032.1.045.121.083.237.128.358.026.064.045.121.07.179q.067.2.153.4c.064.16.135.326.2.492s.141.326.211.486.147.32.23.48v.006q.2.422.422.825a1.721,1.721,0,0,0,.1.192c.057.115.128.23.186.339.019.039.038.07.057.1.064.108.128.211.192.32.026.045.058.1.083.141.064.108.134.211.2.32.019.025.032.051.051.077.089.141.179.282.268.416l.3.435c.23.326.467.645.716.952.064.083.128.166.2.243.032.039.057.077.089.109.07.09.141.166.211.249.147.179.3.352.46.525.1.1.192.211.294.313l.013.013c.1.115.211.224.32.333.237.236.48.466.729.7.083.077.166.147.256.224.166.147.326.288.5.422.058.052.121.1.179.154.083.064.159.128.243.185.1.083.2.153.294.23s.192.147.288.217a19.412,19.412,0,0,0,1.8,1.157c.089.052.179.109.268.16l.115.057c.108.064.224.122.333.179s.236.122.351.179c.083.045.172.09.256.128s.179.083.269.128c.211.1.422.192.633.282.135.057.262.115.4.166a.422.422,0,0,1,.064.026c.115.045.23.09.351.134.039.013.07.032.109.045.1.032.192.064.288.1.064.026.128.045.2.07s.173.058.262.083c.108.038.217.07.326.109a.179.179,0,0,0,.057.013c.16.057.32.1.486.147.006,0,.019.006.026.006.16.045.313.09.473.128l.077.019c.166.045.339.083.512.122s.364.083.549.122.365.07.55.1.352.057.531.083a.547.547,0,0,0,.1.013c.121.019.249.038.371.051.1.019.186.026.281.039.077.006.16.019.237.026.1.013.211.019.32.032l.48.039.333.019c.089.007.185.013.275.013.039,0,.077.006.115.006.115.006.224.013.346.013l.064.128v14.911c-2.577-1.771-5.269-3.76-8.005-6-2.621-2.136-5.032-4.271-7.238-6.368q-1.4-1.324-2.686-2.628c-.531-.531-1.042-1.055-1.541-1.58a37.457,37.457,0,0,1-7-13.581,31.423,31.423,0,0,1-.921-4.949c-.038-.4-.077-.793-.1-1.2a28.831,28.831,0,0,1-.038-3.5,28.172,28.172,0,0,1,2.18-9.808c3.791-9,12.872-15.41,22.584-16.458a24.785,24.785,0,0,1,2.762-.141v6.234a21.1,21.1,0,0,0-2.123.166c-.09.006-.179.019-.262.032-.109.012-.224.032-.333.051-.16.019-.313.051-.467.077s-.326.057-.486.09H466.7c-.135.032-.275.057-.416.089-.038.013-.083.019-.121.032a3.375,3.375,0,0,0-.333.077c-.218.051-.441.108-.659.172-.141.039-.275.077-.409.122a.718.718,0,0,0-.108.032c-.09.026-.179.052-.269.083s-.185.057-.275.09c-.064.019-.121.044-.186.064-.109.032-.217.077-.32.115-.141.051-.281.1-.422.16s-.281.108-.415.166-.269.109-.4.173a1.055,1.055,0,0,0-.153.064c-.09.038-.173.077-.256.115s-.147.07-.217.1-.166.083-.249.121c-.064.032-.128.064-.2.1-.1.045-.2.1-.307.16s-.237.122-.352.185-.2.109-.3.166c-.071.039-.134.077-.2.115a2.474,2.474,0,0,0-.217.128c-.077.045-.153.09-.23.141a1.093,1.093,0,0,0-.179.115c-.083.045-.166.1-.249.153l-.23.154c-.115.077-.224.147-.333.224s-.224.16-.333.237c-.019.013-.032.026-.051.038-.108.083-.224.166-.339.25l-.333.256c-.083.064-.159.128-.243.2s-.166.134-.243.2c-.109.09-.217.186-.326.275-.064.052-.121.109-.185.166-.083.07-.166.147-.25.224-.134.128-.268.249-.4.377l-.326.326c-.121.115-.237.237-.352.358a22.438,22.438,0,0,0-2.519,3.185c-.09.14-.185.288-.269.428s-.179.288-.268.442c-.077.128-.153.262-.23.4-.013.019-.019.039-.032.058-.077.14-.16.288-.237.435s-.16.307-.23.46-.154.307-.224.46c-.057.122-.115.243-.166.364a.7.7,0,0,0-.064.141c-.051.109-.1.217-.141.326A2.632,2.632,0,0,0,450.833,369.735Z" transform="translate(-442.824 -349.824)" fill="#2777b2"/>
          </g>
          <g id="Group_9" data-name="Group 9" transform="translate(7.862 19.911)">
            <path id="Path_13" data-name="Path 13" d="M459.136,391.225l.147-.09a.876.876,0,0,0-.051.141Z" transform="translate(-459.136 -391.135)" fill="#2777b2"/>
          </g>
          <g id="Group_10" data-name="Group 10" transform="translate(27.498 51.172)">
            <path id="Path_14" data-name="Path 14" d="M499.94,455.994v.128l-.064-.128Z" transform="translate(-499.877 -455.994)" fill="#2777b2"/>
          </g>
          <g id="Group_12" data-name="Group 12" transform="translate(7.862 13.952)">
            <g id="Group_11" data-name="Group 11">
              <path id="Path_15" data-name="Path 15" d="M459.136,384.82l.1.051a.876.876,0,0,1,.051-.141Zm17.872-1.337c-.307-.511-.633-1.01-.978-1.5.346.518.691,1.062,1.036,1.637.441.735.831,1.451,1.183,2.148C477.871,384.979,477.449,384.219,477.008,383.483Zm.4,3.485c-.07-.153-.141-.3-.211-.448-.364-.761-.793-1.56-1.285-2.372q-.6-1-1.228-1.861c-.026-.038-.051-.07-.077-.108a29.265,29.265,0,0,0-2.864-3.408l-10.013,5.985c1.106.595,2.206,1.183,3.312,1.771.172.089.345.185.518.281.154.077.307.16.46.243l.326.173c.326.678.716,1.419,1.183,2.187.416.7.844,1.323,1.254,1.88v.9c0,.2,0,.4-.007.6,0,1.1,0,2.2-.006,3.3v.441c.057-.032.115-.07.173-.1q4.921-2.945,9.847-5.889A30.249,30.249,0,0,0,477.411,386.968Zm-5.288,1.49a1.648,1.648,0,1,1,.569-2.257,1.6,1.6,0,0,1,.217.62A1.647,1.647,0,0,1,472.122,388.458Z" transform="translate(-459.136 -378.771)" fill="#2777b2"/>
            </g>
          </g>
          <g id="Group_14" data-name="Group 14" transform="translate(10.458 13.952)">
            <g id="Group_13" data-name="Group 13">
              <path id="Path_16" data-name="Path 16" d="M480.2,386.968c-.07-.153-.141-.3-.211-.448-.364-.761-.793-1.56-1.285-2.372q-.6-1-1.228-1.861c-.026-.038-.051-.07-.077-.108a29.265,29.265,0,0,0-2.864-3.408l-10.013,5.985c1.106.595,2.206,1.183,3.312,1.771.173.089.345.185.518.281.154.077.307.16.46.243l.326.173c.326.678.716,1.419,1.183,2.187.416.7.844,1.323,1.254,1.88v.9c0,.2,0,.4-.007.6,0,1.1,0,2.2-.006,3.3v.441c.057-.032.115-.07.173-.1q4.921-2.945,9.847-5.889A30.227,30.227,0,0,0,480.2,386.968Zm-5.288,1.49a1.648,1.648,0,1,1,.569-2.257,1.6,1.6,0,0,1,.217.62A1.648,1.648,0,0,1,474.912,388.458Z" transform="translate(-464.522 -378.771)" fill="#2777b2"/>
            </g>
          </g>
          <g id="Group_15" data-name="Group 15" transform="translate(23.412 17.469)">
            <path id="Path_17" data-name="Path 17" d="M492.627,387.928c.493.812.921,1.611,1.285,2.372-.384-.761-.793-1.509-1.234-2.244-.4-.678-.825-1.337-1.279-1.989Q492.022,386.93,492.627,387.928Z" transform="translate(-491.399 -386.067)" fill="#2777b2"/>
          </g>
          <g id="Group_16" data-name="Group 16" transform="translate(21.68 11.618)">
            <path id="Path_18" data-name="Path 18" d="M494.844,387.318a32.086,32.086,0,0,0-1.247-3.031c-.083-.179-.173-.364-.262-.55-.07-.147-.14-.294-.217-.441l-.019-.039c-.352-.7-.742-1.413-1.183-2.148-.345-.576-.69-1.119-1.036-1.637-.166-.249-.333-.486-.5-.716a35.354,35.354,0,0,0-2.577-3.216l2.686-1.611a47.559,47.559,0,0,1,3.811,5.409,46.965,46.965,0,0,1,2.628,4.975c.217.48.416.94.607,1.394Q496.184,386.512,494.844,387.318Z" transform="translate(-487.804 -373.929)" fill="#2777b2"/>
          </g>
          <g id="Group_17" data-name="Group 17" transform="translate(21.68 11.618)">
            <path id="Path_19" data-name="Path 19" d="M497.536,385.707q-1.352.805-2.692,1.611a32.086,32.086,0,0,0-1.247-3.031c-.083-.179-.173-.364-.262-.55-.07-.147-.14-.294-.217-.441l-.019-.039c-.352-.7-.742-1.413-1.183-2.148-.345-.576-.69-1.119-1.036-1.637-.166-.249-.333-.486-.5-.716a35.354,35.354,0,0,0-2.577-3.216l2.686-1.611a47.559,47.559,0,0,1,3.811,5.409,46.965,46.965,0,0,1,2.628,4.975C497.146,384.792,497.344,385.253,497.536,385.707Z" transform="translate(-487.804 -373.929)" fill="#2777b2"/>
          </g>
        </g>
      </g>
    </g>
    <g id="Group_21" data-name="Group 21" transform="translate(169.562 336.941)">
      <g id="Group_20" data-name="Group 20">
        <path id="Path_20" data-name="Path 20" d="M399.413,590.836a6.627,6.627,0,0,0-1.779,4.906V624.05H377.091a7.755,7.755,0,0,1-3.263-.729,9.04,9.04,0,0,1-2.668-1.806,14.07,14.07,0,0,1-1.86-2.912,7.382,7.382,0,0,1-.781-3.235v-8.627a6.086,6.086,0,0,0-2-4.691h.055a7.136,7.136,0,0,0-2-1.376,10.7,10.7,0,0,0-3.02-.836v15.529a16.943,16.943,0,0,0,1.106,6.12,13.72,13.72,0,0,0,3.263,4.988,15.555,15.555,0,0,0,11.16,4.206h27.391V590.836a1.222,1.222,0,0,1,.027-.243,1.3,1.3,0,0,0,.028-.243V589a11.151,11.151,0,0,0-3.1.513A5.541,5.541,0,0,0,399.413,590.836Z" transform="translate(-361.562 -589.002)" fill="#1c608d"/>
        <path id="Path_21" data-name="Path 21" d="M408.375,612.26h-4.906a8.045,8.045,0,0,1,.241-1.43,4.21,4.21,0,0,1,.594-1.321,2.965,2.965,0,0,1,1.051-.943,3.016,3.016,0,0,1,1.618-.3l.378-1.239v-.055c0-.036.008-.055.026-.055s.028-.018.028-.053c.072-.18.2-.467.378-.863a16.635,16.635,0,0,1,.808-1.51h-1.833a.153.153,0,0,1-.108-.054,6.388,6.388,0,0,0-5.015,2.291,8.988,8.988,0,0,0-2.048,5.527h-1.78v4.1h10.568Z" transform="translate(-380.337 -597)" fill="#1c608d"/>
        <path id="Path_22" data-name="Path 22" d="M545.584,616.12a20.03,20.03,0,0,0-4.986-3.261,14.5,14.5,0,0,0-6.067-1.214,15.579,15.579,0,0,0-6.092,1.133,15.3,15.3,0,0,0-4.8,3.181,16.277,16.277,0,0,0-3.45,4.961A14.837,14.837,0,0,0,519,626.958v8.682H507.788l.054-8.411a14.729,14.729,0,0,0-1.212-5.958,16.179,16.179,0,0,0-3.424-4.988,18.87,18.87,0,0,0-4.907-3.154,14.625,14.625,0,0,0-5.931-1.159h-9.328a7.94,7.94,0,0,0,.647,3.1,7.006,7.006,0,0,0,1.457,1.914,7.455,7.455,0,0,0,1.995,1.241,6.236,6.236,0,0,0,2.481.484h2.749a7.669,7.669,0,0,1,5.823,2.535,10.765,10.765,0,0,1,1.86,2.751,7.608,7.608,0,0,1,.673,3.235v8.411h-26.1V611.375a9.805,9.805,0,0,0-3.342,1,12.658,12.658,0,0,0-2.481,1.752q-1.079,1.078-1.078,4.151v34.563a8.133,8.133,0,0,0,2.939-.674,7.431,7.431,0,0,0,2.131-1.483,5.526,5.526,0,0,0,1.347-2.049,7.188,7.188,0,0,0,.485-2.641v-3.721h59.85a15.667,15.667,0,0,0,11.106-4.206A13.877,13.877,0,0,0,548.928,633a16.99,16.99,0,0,0,1.079-6.039A15.092,15.092,0,0,0,545.584,616.12Zm-3.235,14.019a18.042,18.042,0,0,1-1.725,3.02,10.97,10.97,0,0,1-2.83,1.807,8.02,8.02,0,0,1-3.263.675h-8.249v-8.682a7.458,7.458,0,0,1,.728-3.181,14.29,14.29,0,0,1,1.751-2.858,11.053,11.053,0,0,1,2.723-1.806,7.067,7.067,0,0,1,3.046-.727,8.147,8.147,0,0,1,3.208.7,9.051,9.051,0,0,1,2.884,1.941v-.054a11.025,11.025,0,0,1,1.753,2.749,7.839,7.839,0,0,1,.674,3.235A7.7,7.7,0,0,1,542.349,630.139Z" transform="translate(-416.645 -600.592)" fill="#1c608d"/>
      </g>
    </g>
  </g>
</svg>
