<?xml version="1.0" encoding="utf-8"?>
<!-- Generator: Adobe Illustrator 27.8.1, SVG Export Plug-In . SVG Version: 6.00 Build 0)  -->
<svg version="1.1" id="Layer_1" xmlns="http://www.w3.org/2000/svg" xmlns:xlink="http://www.w3.org/1999/xlink" x="0px" y="0px"
	 viewBox="0 0 512 512" style="enable-background:new 0 0 512 512;" xml:space="preserve">
<style type="text/css">
	.st0{fill:#FF0000;}
</style>
<g id="Layer_2_00000089538758595074381180000006257695077686474907_">
	<g id="Layer_1_copy_3">
		<g id="_81">
			<path class="st0" d="M362,81.6c-15.8-8.3-35.3-2.2-43.6,13.6s-2.2,35.3,13.6,43.6c53.9,28.2,87.7,84.1,87.6,144.9
				c0,90.2-73.4,163.6-163.6,163.6S92.4,374,92.4,283.8c-0.1-60.9,33.7-116.7,87.6-144.9c15.8-8.3,21.9-27.8,13.6-43.6
				s-27.8-22-43.6-13.7C38.4,140.2-4.7,278.2,53.9,389.8s196.5,154.6,308.1,96s154.6-196.5,96.1-308.1
				C436.6,136.7,403.1,103.2,362,81.6L362,81.6z"/>
			<path class="st0" d="M256,254.5c17.8,0,32.3-14.5,32.3-32.3V32.3C288.3,14.5,273.8,0,256,0s-32.3,14.5-32.3,32.3v189.9
				C223.7,240,238.1,254.5,256,254.5L256,254.5z"/>
		</g>
	</g>
</g>
</svg>
