<svg xmlns="http://www.w3.org/2000/svg" xmlns:xlink="http://www.w3.org/1999/xlink" width="251.269" height="78.843" viewBox="0 0 251.269 78.843">
  <defs>
    <linearGradient id="linear-gradient" x1="0.5" x2="0.5" y2="1" gradientUnits="objectBoundingBox">
      <stop offset="0" stop-color="#0496d1"/>
      <stop offset="1" stop-color="#1d3a61"/>
    </linearGradient>
    <linearGradient id="linear-gradient-6" x1="0.862" y1="-0.24" x2="0.068" xlink:href="#linear-gradient"/>
  </defs>
  <g id="Layer_1-2" transform="translate(0 0.005)">
    <path id="Path_3738" data-name="Path 3738" d="M316.841,104.078a9.111,9.111,0,0,0-2.761,6.653v1.261h16.086a6.867,6.867,0,0,1-6.718,5.537H314.08v2.619h9.441a9.453,9.453,0,0,0,9.391-9.468v-1.308H316.827a6.572,6.572,0,0,1,2.291-3.853,6.7,6.7,0,0,1,4.428-1.61h9.367V101.29h-9.417A9.2,9.2,0,0,0,316.841,104.078Z" transform="translate(-221.124 -71.316)" fill="url(#linear-gradient)"/>
    <path id="Path_3739" data-name="Path 3739" d="M404.71,122.34a6.238,6.238,0,0,0-5,2.474,6.3,6.3,0,0,0-11.315,3.853v6.3h2.643v-6.3a3.575,3.575,0,0,1,1.068-2.613,3.68,3.68,0,0,1,6.271,2.415v6.5H401v-6.493a3.559,3.559,0,0,1,1.139-2.483,3.733,3.733,0,0,1,5.182.074,3.545,3.545,0,0,1,1.092,2.6v6.3h2.6v-6.3a6.285,6.285,0,0,0-6.3-6.325Z" transform="translate(-273.448 -86.136)" fill="url(#linear-gradient)"/>
    <path id="Path_3740" data-name="Path 3740" d="M480.585,122.17a6.353,6.353,0,0,0,0,12.706,6.3,6.3,0,0,0,3.708-1.19v1.19h2.619v-6.351a6.346,6.346,0,0,0-6.325-6.351Zm-2.616,3.738a3.68,3.68,0,1,1-1.1,2.613A3.583,3.583,0,0,1,477.968,125.908Z" transform="translate(-333.897 -86.016)" fill="url(#linear-gradient)"/>
    <path id="Path_3741" data-name="Path 3741" d="M529.563,124.061a6.07,6.07,0,0,0-1.873,4.419v6.425h2.619v-6.328a3.739,3.739,0,0,1,3.708-3.708h.148V122.25h-.148a6.17,6.17,0,0,0-4.454,1.808Z" transform="translate(-371.514 -86.072)" fill="url(#linear-gradient)"/>
    <path id="Path_3742" data-name="Path 3742" d="M561.629,101.38H559.01v12.605a5.974,5.974,0,0,0,1.862,4.407,6.189,6.189,0,0,0,4.466,1.823h.148V117.6h-.148a3.739,3.739,0,0,1-3.708-3.708v-3.708h3.856V107.56h-3.856Z" transform="translate(-393.564 -71.379)" fill="url(#linear-gradient)"/>
    <path id="Path_3743" data-name="Path 3743" d="M615.919,117.546h-2.152a6.861,6.861,0,0,1-6.849-6.849V101.33H604.3V110.8a9.474,9.474,0,0,0,9.465,9.367h4.771V101.333h-2.619v16.213Z" transform="translate(-425.45 -71.344)" fill="#e9a922"/>
    <rect id="Rectangle_2779" data-name="Rectangle 2779" width="2.619" height="12.652" transform="translate(196.276 36.169)" fill="#e9a922"/>
    <path id="Path_3744" data-name="Path 3744" d="M664.408,103.933a1.212,1.212,0,0,0,.909-.391,1.282,1.282,0,0,0,.376-.917,1.252,1.252,0,0,0-.376-.909,1.236,1.236,0,0,0-.909-.376,1.282,1.282,0,0,0-.917.376,1.221,1.221,0,0,0-.391.909,1.308,1.308,0,0,0,1.308,1.311Z" transform="translate(-466.848 -71.351)" fill="#e9a922"/>
    <path id="Path_3745" data-name="Path 3745" d="M684.538,124.1a6.349,6.349,0,0,0-1.808,4.54v1.234h9.657a3.485,3.485,0,0,1-1.255,1.649,3.556,3.556,0,0,1-2.149.725H682.73v2.643h6.254a6.354,6.354,0,0,0,6.251-6.254v-1.409h-9.669a3.162,3.162,0,0,1,1.074-1.53,3.78,3.78,0,0,1,2.018-.843h6.573V122.21h-6.254a5.944,5.944,0,0,0-4.445,1.885Z" transform="translate(-480.668 -86.044)" fill="#e9a922"/>
    <rect id="Rectangle_2780" data-name="Rectangle 2780" width="2.619" height="12.652" transform="translate(217.754 36.169)" fill="#e9a922"/>
    <path id="Path_3746" data-name="Path 3746" d="M736.988,103.933a1.212,1.212,0,0,0,.909-.391,1.282,1.282,0,0,0,.376-.917,1.252,1.252,0,0,0-.376-.909,1.236,1.236,0,0,0-.909-.376,1.282,1.282,0,0,0-.917.376,1.221,1.221,0,0,0-.391.909,1.308,1.308,0,0,0,1.308,1.311Z" transform="translate(-517.947 -71.351)" fill="#e9a922"/>
    <path id="Path_3747" data-name="Path 3747" d="M760.344,122.3a6.074,6.074,0,0,0-4.469,1.862,6.338,6.338,0,0,0,0,8.92,6.289,6.289,0,0,0,10.743-4.454,6.16,6.16,0,0,0-1.835-4.466,6.043,6.043,0,0,0-4.442-1.862Zm-2.613,3.738a3.716,3.716,0,0,1,5.215,0,3.644,3.644,0,0,1,0,5.179,3.7,3.7,0,0,1-5.2,0,3.658,3.658,0,0,1-.012-5.179Z" transform="translate(-530.873 -86.107)" fill="#e9a922"/>
    <path id="Path_3748" data-name="Path 3748" d="M816.858,123.9a6.384,6.384,0,0,0-8.994.012,6.1,6.1,0,0,0-1.873,4.466v6.375h2.643v-6.375a3.569,3.569,0,0,1,1.092-2.625,3.626,3.626,0,0,1,2.64-1.083,3.534,3.534,0,0,1,2.6,1.08,3.6,3.6,0,0,1,1.08,2.625v6.375h2.67v-6.375a6.115,6.115,0,0,0-1.862-4.481Z" transform="translate(-567.448 -85.931)" fill="#e9a922"/>
    <path id="Path_3749" data-name="Path 3749" d="M39.422,78.838A39.421,39.421,0,1,1,67.3,67.292h0A39.158,39.158,0,0,1,39.422,78.838Zm-22.6-58.867v21.7a18,18,0,0,0,3.022,10.1c4.934,7.18,13.712,7.736,16.293,7.736.326,0,.574,0,.69-.015h1.421a21.313,21.313,0,0,1-14.532-8.672A16,16,0,0,1,20.7,41.727V23.594H32.328a16.378,16.378,0,0,1,7.964,2.069,12.88,12.88,0,0,1,6.834,10.6V45.32l3.768,3.8V36.27a16.887,16.887,0,0,0-.962-5.292,15.893,15.893,0,0,0-7.393-8.849A17.544,17.544,0,0,0,34.13,19.98H16.822ZM28.27,30.386V43.228a16.85,16.85,0,0,0,.962,5.286,15.892,15.892,0,0,0,7.4,8.84A17.52,17.52,0,0,0,45.022,59.5H62.315V37.122a15.35,15.35,0,0,0-.891-5.15,17.785,17.785,0,0,0-5.685-8.127A22.444,22.444,0,0,0,41.63,19.971H40.9l.346.124c7.227,2.353,13.289,6.544,15.437,10.681a12.493,12.493,0,0,1,1.607,6.594V55.886H46.809a16.407,16.407,0,0,1-7.275-1.7,12.984,12.984,0,0,1-7.023-8.245,14.105,14.105,0,0,1-.477-3.637V34.189l-3.768-3.8Z" fill="url(#linear-gradient-6)"/>
  </g>
</svg>
