<svg xmlns="http://www.w3.org/2000/svg" xmlns:xlink="http://www.w3.org/1999/xlink" width="62" height="62" viewBox="0 0 62 62">
  <defs>
    <linearGradient id="linear-gradient" x1="0.5" x2="0.5" y2="1" gradientUnits="objectBoundingBox">
      <stop offset="0" stop-color="#0496d1"/>
      <stop offset="1" stop-color="#1d3a61"/>
    </linearGradient>
  </defs>
  <g id="svgexport-15_33_" data-name="svgexport-15 (33)" transform="translate(-1 -1)">
    <g id="Artboard_01" data-name="Artboard 01">
      <path id="Path_3769" data-name="Path 3769" d="M4.794,44.175a1,1,0,0,0,.82-.426l2.2-3.149a1,1,0,0,0-1.638-1.148l-2.2,3.15A1,1,0,0,0,4.8,44.176Zm4.694-6.706a1,1,0,0,0,.821-.427,12.064,12.064,0,0,1,3.951-3.578l.052-.03.056-.038,3.671-2.578a1,1,0,1,0-1.15-1.636l-3.641,2.557A14.085,14.085,0,0,0,8.67,35.9a1,1,0,0,0,.818,1.574ZM42,31A10,10,0,1,0,32,21,10,10,0,0,0,42,31Zm0-18a8,8,0,1,1-8,8,8,8,0,0,1,8-8Z" fill="url(#linear-gradient)"/>
      <path id="Path_3770" data-name="Path 3770" d="M40.293,25.707A1,1,0,0,0,41,26h.039a1,1,0,0,0,.72-.348l6-7a1,1,0,0,0-1.518-1.3l-5.3,6.18L38.705,21.3a1,1,0,1,0-1.414,1.414ZM52,33H32a1,1,0,0,0,0,2H52a1,1,0,0,0,0-2Zm-4,4H36a1,1,0,0,0,0,2H48a1,1,0,0,0,0-2Z" fill="url(#linear-gradient)"/>
      <path id="Path_3771" data-name="Path 3771" d="M58,1H30a5.006,5.006,0,0,0-5,5V30h-.981a4.2,4.2,0,0,0-2.427.767l-6.219,4.368a10.016,10.016,0,0,0-3.426,3.054L7.252,44.9a3.644,3.644,0,0,1-2.281,1.49L1.8,47.02A1,1,0,0,0,1,48V62a1,1,0,0,0,1,1H20.464a7.387,7.387,0,0,0,5.07-2l.284-.266A5.007,5.007,0,0,0,30,63H58a5.006,5.006,0,0,0,5-5V6a5.006,5.006,0,0,0-5-5ZM48.719,3l-.5,2H35.781l-.5-2ZM23.188,49.838A.722.722,0,0,1,22,49.288V41.856a.5.5,0,0,1,.256-.431L25,39.77v8.535ZM20.464,61H3V48.82l2.363-.473a5.631,5.631,0,0,0,3.528-2.3l4.694-6.706a8.026,8.026,0,0,1,2.784-2.466,1.132,1.132,0,0,0,.105-.064l6.267-4.4a2.216,2.216,0,0,1,1.278-.4H25v5.435l-3.765,2.27A2.5,2.5,0,0,0,20,41.856v7.432a2.722,2.722,0,0,0,4.48,2.077l9.19-7.776A2.492,2.492,0,0,1,35.278,43h.233a2.481,2.481,0,0,1,1.758,4.24.983.983,0,0,0-.139.142L24.166,59.536A5.4,5.4,0,0,1,20.464,61ZM39.243,43H49v4H39.715a4.347,4.347,0,0,0-.472-4ZM27.314,59.327,38.329,49H49a2,2,0,0,0,2-2V43a2,2,0,0,0-2-2H35.278a4.488,4.488,0,0,0-2.9,1.063L27,46.613V6a3,3,0,0,1,3-3h3.219l.811,3.243A1,1,0,0,0,35,7H49a1,1,0,0,0,.97-.757L50.781,3H54a3,3,0,0,1,3,3V58a3,3,0,0,1-3,3H30a3,3,0,0,1-2.686-1.673ZM61,58a3,3,0,0,1-3,3h-.026A4.948,4.948,0,0,0,59,58V6a4.948,4.948,0,0,0-1.026-3H58a3,3,0,0,1,3,3Z" fill="url(#linear-gradient)"/>
    </g>
  </g>
</svg>
