<svg xmlns="http://www.w3.org/2000/svg" xmlns:xlink="http://www.w3.org/1999/xlink" width="75.077" height="66.816" viewBox="0 0 75.077 66.816">
  <defs>
    <linearGradient id="linear-gradient" x1="0.5" x2="0.5" y2="1" gradientUnits="objectBoundingBox">
      <stop offset="0" stop-color="#0496d1"/>
      <stop offset="1" stop-color="#1d3a61"/>
    </linearGradient>
  </defs>
  <g id="svgexport-15_30_" data-name="svgexport-15 (30)" transform="translate(-4 -7.08)">
    <path id="Path_3759" data-name="Path 3759" d="M70.861,10.182H65.475V8.421a1.341,1.341,0,0,0-2.681,0V19.426a1.341,1.341,0,0,0,2.681,0v-.938h.987A2.826,2.826,0,0,1,69.29,21.3v5.979H54.154a1.341,1.341,0,1,0,0,2.681H70.631a1.341,1.341,0,0,0,1.341-1.341V21.3a5.662,5.662,0,0,0-6.5-5.5V12.862h5.387A5.54,5.54,0,0,1,76.4,18.4V65.68a5.54,5.54,0,0,1-5.534,5.534H12.232a5.548,5.548,0,0,1-5.55-5.533V18.4a5.548,5.548,0,0,1,5.549-5.533h6.73a1.33,1.33,0,0,0,1.334-1.374V8.422a1.341,1.341,0,1,0-2.681,0v1.76H12.23A8.231,8.231,0,0,0,4,18.394V65.68A8.232,8.232,0,0,0,12.23,73.9H70.861a8.225,8.225,0,0,0,8.216-8.214V18.4a8.225,8.225,0,0,0-8.216-8.214Z" transform="translate(0)" fill="url(#linear-gradient)"/>
    <path id="Path_3760" data-name="Path 3760" d="M14.807,18.489h2.346a1.341,1.341,0,0,0,0-2.681H14.807a5.5,5.5,0,0,0-5.5,5.5v7.32a1.341,1.341,0,0,0,1.341,1.341H46.983a1.341,1.341,0,1,0,0-2.681H11.991V21.3a2.819,2.819,0,0,1,2.815-2.815Zm26.317-1.335v2.274a1.341,1.341,0,1,0,2.681,0v-.933H56.866a1.341,1.341,0,0,0,0-2.681H43.807V12.864H56.866a1.389,1.389,0,0,0,1.341-1.6V8.422a1.341,1.341,0,1,0-2.681,0v1.76H43.807V8.421a1.341,1.341,0,1,0-2.681,0c-.016,1.925.013,6.752,0,8.732Z" transform="translate(1.809)" fill="url(#linear-gradient)"/>
    <path id="Path_3761" data-name="Path 3761" d="M22.6,20.768a1.341,1.341,0,0,0,1.341-1.341v-.933H37.007a1.341,1.341,0,1,0,0-2.681H23.945V12.864H37.007a1.385,1.385,0,0,0,1.339-1.6V8.422a1.341,1.341,0,1,0-2.681,0v1.76H23.945V8.421a1.341,1.341,0,1,0-2.681,0V19.426A1.341,1.341,0,0,0,22.6,20.767Zm9.241,40.1a1.349,1.349,0,0,0,.645,2.516A4.84,4.84,0,0,0,35.8,59.763h7.87a5.479,5.479,0,0,0,10.607,0h2.589a4.648,4.648,0,0,0,4.644-4.644V49.75a4.652,4.652,0,0,0-2.594-4.156l-2.657-1.313c-.6-.068-3.13-4.283-3.68-4.958a4.627,4.627,0,0,0-3.83-2.046H36.5a4.617,4.617,0,0,0-4.11,2.492l-2.053,3.9a1.971,1.971,0,0,1-1.372,1.022l-4.12.771v-.92a1.341,1.341,0,0,0-2.681,0v1.421a4.7,4.7,0,0,0-4.218,4.643v4.51a4.648,4.648,0,0,0,4.644,4.644h2.587c.269,1.2,1.271,3.147,2.738,2.162a1.341,1.341,0,0,0,.3-1.873,2.8,2.8,0,1,1,3.633.819Zm17.13.355a2.809,2.809,0,1,1,2.809-2.809,2.809,2.809,0,0,1-2.809,2.809Zm-18.5-8.3a5.478,5.478,0,0,0-5.3,4.151H22.59a1.964,1.964,0,0,1-1.963-1.963v-4.51a1.961,1.961,0,0,1,1.6-1.928c.487-.121,7.9-1.376,8.058-1.626H46a1.341,1.341,0,0,0,0-2.681H33l1.768-3.36A1.975,1.975,0,0,1,36.5,39.96H48.75a1.952,1.952,0,0,1,1.613.871l2.931,4.294c.79,1.367,3.129,2.175,4.443,2.877a1.956,1.956,0,0,1,1.094,1.748v5.368a1.964,1.964,0,0,1-1.963,1.963H54.28a5.479,5.479,0,0,0-10.61,0H35.791a5.491,5.491,0,0,0-5.313-4.151ZM10.653,35.649H13.1a1.341,1.341,0,1,0,0-2.681H10.653a1.341,1.341,0,1,0,0,2.681Zm0,4.31h6.989a1.341,1.341,0,1,0,0-2.681H10.653a1.341,1.341,0,1,0,0,2.681Z" transform="translate(1.81)" fill="url(#linear-gradient)"/>
  </g>
</svg>
