<svg xmlns="http://www.w3.org/2000/svg" xmlns:xlink="http://www.w3.org/1999/xlink" width="86.21" height="88.519" viewBox="0 0 86.21 88.519">
  <defs>
    <linearGradient id="linear-gradient" x1="0.5" x2="0.5" y2="1" gradientUnits="objectBoundingBox">
      <stop offset="0" stop-color="#0496d1"/>
      <stop offset="1" stop-color="#1d3a61"/>
    </linearGradient>
  </defs>
  <g id="svgexport-15_32_" data-name="svgexport-15 (32)" transform="translate(-7.163 -0.5)">
    <path id="Path_3768" data-name="Path 3768" d="M37.092,12.688a3.894,3.894,0,1,0-3.891-3.9A3.9,3.9,0,0,0,37.092,12.688Zm0-5.366a1.473,1.473,0,1,1-1.47,1.47A1.472,1.472,0,0,1,37.092,7.322ZM91.624,78.457v-5.95a7.016,7.016,0,0,0-6.251-6.985L74.262,64.061c-3.637-6.628-7.529-12.94-11.691-12.94H43.282C35.87,51.12,33.816,55.2,32,58.8c-1.442,2.868-2.8,5.576-6.651,6.973l-.028.01a4.515,4.515,0,0,0-2.853,4.175v8.5a3.4,3.4,0,0,0-1.694,2.37H13.524a3.96,3.96,0,0,1-3.94-3.94v-59.4a3.959,3.959,0,0,1,3.94-3.94H22.88v1.94H13.524a2.014,2.014,0,0,0-2,2v59.4a2.014,2.014,0,0,0,2,2h6.7a1.211,1.211,0,1,0,0-2.421H13.946V17.908h9.413A5.127,5.127,0,0,0,28,20.873H46.183a5.132,5.132,0,0,0,4.647-2.965h7.581V48.876a1.211,1.211,0,0,0,2.421,0V17.486a2.014,2.014,0,0,0-2-2H51.31V13.546h7.523a3.96,3.96,0,0,1,3.94,3.94V49.038a1.211,1.211,0,0,0,2.421,0V17.486a6.381,6.381,0,0,0-6.361-6.361H51.31V8.792A1.211,1.211,0,0,0,50.1,7.582H45.3a8.293,8.293,0,0,0-16.408,0h-4.8A1.211,1.211,0,0,0,22.88,8.792v2.333H13.524a6.381,6.381,0,0,0-6.361,6.361v59.4a6.381,6.381,0,0,0,6.361,6.361h7.736a3.4,3.4,0,0,0,2.859,1.568h4.737a8.029,8.029,0,0,0,14.114,0H69.793a8.028,8.028,0,0,0,14.114,0h6.075a3.393,3.393,0,0,0,1.642-6.361ZM25.3,10h4.71a1.211,1.211,0,0,0,1.211-1.211,5.871,5.871,0,0,1,11.742,0A1.211,1.211,0,0,0,44.174,10h4.715v5.744a2.708,2.708,0,0,1-2.705,2.705H28a2.706,2.706,0,0,1-2.7-2.705ZM26.2,68.048c4.739-1.727,6.456-5.142,7.972-8.155,1.785-3.549,3.195-6.352,9.115-6.352h19.29c3.2,0,7.7,8.253,9.861,12.219a1.21,1.21,0,0,0,.9.62L85.07,67.925l.027,0A4.6,4.6,0,0,1,89.2,72.508v5.523H84.312a8.027,8.027,0,0,0-14.923,0H43.376a8.027,8.027,0,0,0-14.924,0H24.894V69.964a2.077,2.077,0,0,1,1.3-1.916ZM24.12,82.4a.973.973,0,1,1,0-1.946H27.9q-.019.269-.02.539A8.025,8.025,0,0,0,28.01,82.4Zm11.8,4.2a5.62,5.62,0,0,1-5.169-3.424c-.007-.017-.013-.034-.02-.051a5.6,5.6,0,0,1-.25-3.512c.008-.024.014-.049.02-.074A5.608,5.608,0,1,1,35.916,86.6Zm7.9-4.2a8.042,8.042,0,0,0,.126-1.406c0-.181-.008-.361-.02-.539H68.84q-.019.269-.02.539a8.025,8.025,0,0,0,.126,1.406Zm33.03,4.2a5.615,5.615,0,0,1-5.162-3.419c-.008-.02-.015-.04-.024-.06a5.609,5.609,0,1,1,10.375.005c-.007.016-.013.033-.019.049A5.621,5.621,0,0,1,76.848,86.6Zm13.134-4.2H84.754a8.026,8.026,0,0,0,.126-1.406c0-.181-.008-.361-.02-.539h5.122a.973.973,0,0,1,0,1.946ZM56.333,66.19H68.84a1.211,1.211,0,0,0,1.053-1.808c-3.124-5.5-5.483-8.594-7.011-9.194a1.206,1.206,0,0,0-.442-.084H56.333a1.211,1.211,0,0,0-1.211,1.211V64.98a1.211,1.211,0,0,0,1.211,1.21Zm1.211-8.665h4.61c.732.479,2.361,2.536,4.581,6.243h-9.19V57.526ZM34.71,66.19H51.731a1.21,1.21,0,0,0,1.211-1.211V56.315A1.211,1.211,0,0,0,51.731,55.1H43.282c-5.229,0-6.438,2.745-7.718,5.651-.153.347-.311.706-.481,1.072a18.405,18.405,0,0,1-1.378,2.478A1.211,1.211,0,0,0,34.71,66.19Zm2.568-3.343q.256-.555.5-1.116c1.234-2.8,1.853-4.206,5.5-4.206H50.52v6.243H36.826q.237-.456.453-.922ZM35.916,77.09a3.9,3.9,0,1,0,3.9,3.9A3.906,3.906,0,0,0,35.916,77.09Zm0,5.381a1.48,1.48,0,1,1,1.475-1.48A1.482,1.482,0,0,1,35.916,82.471ZM76.848,77.09a3.9,3.9,0,1,0,3.9,3.9A3.9,3.9,0,0,0,76.848,77.09Zm0,5.381a1.48,1.48,0,1,1,1.48-1.48A1.479,1.479,0,0,1,76.848,82.471ZM63.895,69.577a1.211,1.211,0,0,1-1.211,1.211h-2.8a1.211,1.211,0,0,1,0-2.421h2.8A1.211,1.211,0,0,1,63.895,69.577Zm-14.933,0a1.211,1.211,0,0,1-1.211,1.211h-2.8a1.211,1.211,0,0,1,0-2.421h2.8a1.211,1.211,0,0,1,1.211,1.211ZM37.713,37.5a1.211,1.211,0,0,0,.908-1.172V33a1.211,1.211,0,0,0-.906-1.172L35.7,31.308q-.063-.163-.133-.322l1.051-1.791a1.211,1.211,0,0,0-.188-1.469l-2.348-2.347a1.21,1.21,0,0,0-1.468-.188l-1.793,1.052q-.159-.069-.32-.133L29.981,24.1a1.211,1.211,0,0,0-1.172-.906H25.487a1.211,1.211,0,0,0-1.172.908l-.519,2.01q-.162.063-.323.134L21.679,25.19a1.21,1.21,0,0,0-1.468.188l-2.347,2.347a1.211,1.211,0,0,0-.187,1.47l1.053,1.789q-.07.16-.134.322l-2.013.524A1.211,1.211,0,0,0,15.675,33v3.323a1.211,1.211,0,0,0,.908,1.172l2.01.519q.064.164.136.326l-1.053,1.789a1.21,1.21,0,0,0,.187,1.47l2.347,2.348a1.21,1.21,0,0,0,1.47.187l1.789-1.053q.162.071.326.136l.52,2.01a1.211,1.211,0,0,0,1.172.908H28.81a1.21,1.21,0,0,0,1.172-.906l.524-2.013q.162-.064.322-.134l1.789,1.053a1.21,1.21,0,0,0,1.47-.187L36.434,41.6a1.21,1.21,0,0,0,.188-1.469L35.569,38.34q.07-.161.134-.323Zm-3.242-1.663a1.211,1.211,0,0,0-.856.821,6.876,6.876,0,0,1-.488,1.182,1.21,1.21,0,0,0,.029,1.173l.9,1.541-1.023,1.023-1.54-.907a1.21,1.21,0,0,0-1.184-.025,6.613,6.613,0,0,1-1.172.489,1.211,1.211,0,0,0-.817.853l-.45,1.731H26.425l-.447-1.729a1.21,1.21,0,0,0-.821-.856,6.527,6.527,0,0,1-1.173-.488,1.211,1.211,0,0,0-1.184.025l-1.54.907-1.022-1.022.907-1.54a1.21,1.21,0,0,0,.025-1.184,6.513,6.513,0,0,1-.488-1.173,1.211,1.211,0,0,0-.856-.821L18.1,35.387v-1.45l1.731-.45a1.211,1.211,0,0,0,.853-.817,6.618,6.618,0,0,1,.489-1.172,1.21,1.21,0,0,0-.025-1.184l-.907-1.54,1.023-1.023,1.541.9a1.211,1.211,0,0,0,1.173.029,6.878,6.878,0,0,1,1.183-.488,1.21,1.21,0,0,0,.821-.856l.447-1.729h1.45l.45,1.731a1.211,1.211,0,0,0,.817.853,6.952,6.952,0,0,1,1.181.489,1.21,1.21,0,0,0,1.173-.029l1.541-.9,1.024,1.024-.9,1.541a1.211,1.211,0,0,0-.024,1.182,6.616,6.616,0,0,1,.484,1.172,1.21,1.21,0,0,0,.853.817l1.731.45v1.45Zm-7.323-6.145a4.974,4.974,0,1,0,4.974,4.975A4.98,4.98,0,0,0,27.148,29.689Zm0,7.528A2.553,2.553,0,1,1,29.7,34.664a2.556,2.556,0,0,1-2.553,2.553Zm29.527-9.2a1.211,1.211,0,0,1-1.211,1.211H41.611a1.211,1.211,0,1,1,0-2.421H55.465a1.211,1.211,0,0,1,1.211,1.211Zm0,5.028a1.211,1.211,0,0,1-1.211,1.211H41.611a1.211,1.211,0,1,1,0-2.421H55.465a1.211,1.211,0,0,1,1.211,1.211Zm0,5.028a1.211,1.211,0,0,1-1.211,1.211H41.611a1.211,1.211,0,1,1,0-2.421H55.465a1.211,1.211,0,0,1,1.211,1.211Zm0,5.023a1.211,1.211,0,0,1-1.211,1.211H41.611a1.211,1.211,0,1,1,0-2.421H55.465A1.211,1.211,0,0,1,56.676,43.1Z" fill="url(#linear-gradient)"/>
  </g>
</svg>
