<svg xmlns="http://www.w3.org/2000/svg" xmlns:xlink="http://www.w3.org/1999/xlink" width="82.71" height="63.41" viewBox="0 0 82.71 63.41">
  <defs>
    <linearGradient id="linear-gradient" x1="0.5" x2="0.5" y2="1" gradientUnits="objectBoundingBox">
      <stop offset="0" stop-color="#0496d1"/>
      <stop offset="1" stop-color="#1d3a61"/>
    </linearGradient>
  </defs>
  <g id="svgexport-5_1_" data-name="svgexport-5 (1)" transform="translate(0 -7)">
    <path id="Path_3757" data-name="Path 3757" d="M77.2,12.514H68.925a2.757,2.757,0,0,0-2.757-2.757h-.911a7.857,7.857,0,0,0-11.953,0h-.921a2.757,2.757,0,0,0-2.757,2.757H41.355a5.514,5.514,0,0,0-5.318,4.136H16.765a5.506,5.506,0,0,0-5.23,3.77l-2.9,8.707a4.109,4.109,0,0,0-3.118-1.449H4.135a4.135,4.135,0,0,0-.722,8.2l-1.407.845A4.163,4.163,0,0,0,0,40.267V58a4.136,4.136,0,0,0,2.757,3.882V64.9a4.135,4.135,0,0,0,4.135,4.135h5.514A4.135,4.135,0,0,0,16.542,64.9V62.14h19.3V64.9a5.514,5.514,0,0,0,5.514,5.514H77.2A5.514,5.514,0,0,0,82.71,64.9V18.028A5.514,5.514,0,0,0,77.2,12.514Zm-24.813,0h1.709a1.379,1.379,0,0,0,1.252-.8,4.309,4.309,0,0,1,3.931-1.956,4.344,4.344,0,0,1,3.948,1.966,1.378,1.378,0,0,0,1.249.791h1.7v2.757H52.383ZM35.841,45.6H19.3a2.757,2.757,0,0,1,2.757-2.757H35.841ZM14.152,21.292a2.757,2.757,0,0,1,2.614-1.886H35.841V33.191H10.183ZM2.757,31.813a1.379,1.379,0,0,1,1.379-1.378H5.514a1.379,1.379,0,0,1,1.378,1.378v1.378H4.135A1.379,1.379,0,0,1,2.757,31.813ZM13.785,64.9a1.379,1.379,0,0,1-1.378,1.379H6.892A1.379,1.379,0,0,1,5.514,64.9V62.14h8.271ZM4.135,59.383A1.379,1.379,0,0,1,2.757,58V40.267a1.392,1.392,0,0,1,.669-1.184l5.227-3.135H35.841v4.135H22.056A5.514,5.514,0,0,0,16.542,45.6,2.757,2.757,0,0,0,19.3,48.355H35.841V52.49H20.677a1.378,1.378,0,1,0,0,2.757H35.841v4.136ZM79.953,64.9A2.757,2.757,0,0,1,77.2,67.654H41.355A2.757,2.757,0,0,1,38.6,64.9V18.028a2.757,2.757,0,0,1,2.757-2.757h8.271a2.757,2.757,0,0,0,2.757,2.757H66.168a2.757,2.757,0,0,0,2.757-2.757H77.2a2.757,2.757,0,0,1,2.757,2.757Z" transform="translate(0 0)" fill="url(#linear-gradient)"/>
    <path id="Path_3758" data-name="Path 3758" d="M8.136,34.54A4.136,4.136,0,0,0,4,38.676v2.757a4.135,4.135,0,0,0,8.271,0V38.676A4.136,4.136,0,0,0,8.136,34.54Zm1.378,6.893a1.378,1.378,0,1,1-2.757,0V38.676a1.378,1.378,0,1,1,2.757,0ZM51.1,18.612,46.52,25.485l-1.569-1.569A1.378,1.378,0,1,0,43,25.865l2.757,2.757a1.378,1.378,0,0,0,.975.4h.138a1.379,1.379,0,0,0,1.01-.607L53.4,20.149a1.379,1.379,0,0,0-2.294-1.53Zm19.067,2.144H57.762a1.378,1.378,0,1,0,0,2.757H70.168a1.378,1.378,0,0,0,0-2.757ZM57.762,29.026h8.02a1.378,1.378,0,1,0,0-2.757h-8.02a1.378,1.378,0,1,0,0,2.757ZM51.1,32.4,46.52,39.27,44.951,37.7A1.378,1.378,0,1,0,43,39.65l2.757,2.757a1.379,1.379,0,0,0,.975.4.951.951,0,0,0,.138-.007,1.378,1.378,0,0,0,1.01-.607L53.4,33.927A1.379,1.379,0,1,0,51.1,32.4ZM70.168,34.54H57.762a1.379,1.379,0,1,0,0,2.757H70.168a1.379,1.379,0,0,0,0-2.757ZM57.762,42.811h8.02a1.379,1.379,0,0,0,0-2.757h-8.02a1.379,1.379,0,0,0,0,2.757ZM51.1,46.182,46.52,53.055l-1.569-1.569A1.378,1.378,0,1,0,43,53.435l2.757,2.757a1.379,1.379,0,0,0,.975.4.951.951,0,0,0,.138-.007,1.378,1.378,0,0,0,1.01-.607L53.4,47.712a1.379,1.379,0,1,0-2.294-1.53Zm19.067,2.144H57.762a1.378,1.378,0,1,0,0,2.757H70.168a1.378,1.378,0,0,0,0-2.757Zm-4.386,5.514h-8.02a1.379,1.379,0,0,0,0,2.757h8.02a1.379,1.379,0,0,0,0-2.757ZM9.514,48.325H6.757a1.378,1.378,0,1,0,0,2.757H9.514a1.378,1.378,0,1,0,0-2.757Z" transform="translate(1.514 4.165)" fill="url(#linear-gradient)"/>
  </g>
</svg>
