<svg id="Group_40" data-name="Group 40" xmlns="http://www.w3.org/2000/svg" xmlns:xlink="http://www.w3.org/1999/xlink" width="860" height="631.406" viewBox="0 0 860 631.406">
  <defs>
    <linearGradient id="linear-gradient" x1="0.5" y1="1" x2="0.5" gradientUnits="objectBoundingBox">
      <stop offset="0" stop-color="gray" stop-opacity="0.251"/>
      <stop offset="0.54" stop-color="gray" stop-opacity="0.122"/>
      <stop offset="1" stop-color="gray" stop-opacity="0.102"/>
    </linearGradient>
  </defs>
  <path id="Path_31" data-name="Path 31" d="M913.644,355.651c-18.1,40.875,4.993,87.959,32.13,123.45,9.1,11.88,19.1,24.315,20.381,39.268,1.52,18.236-10.829,35-25.487,45.964-26.72,19.973-63.227,26.147-95.028,16.074-27.484-8.684-50.592-28.37-78.311-36.307-46.389-13.278-95.522,8.736-135.216,36.151-28.092,19.4-58.182,42.985-92.049,38.843-23.846-2.918-44.079-19.652-57.8-39.364-6.626-9.552-12.392-20.173-22.048-26.6-5.74-3.821-12.479-5.844-19.226-7.286-61.569-13.156-126.9,18.957-187.65,2.44-41.031-11.159-73.752-43.593-94.09-80.925s-29.838-79.5-37.749-121.279c-5.619-29.69-10.282-61.725,2.605-89.044,13.668-28.9,45.3-46.415,77.1-49.689s63.687,5.8,92.978,18.6c36.6,16,72.476,38.409,112.43,38.487,27.207.052,53.145-10.421,79.162-18.349,43.576-13.312,88.732-19.929,133.827-26.034,43.15-5.844,86.717-11.289,130.128-7.815,30.715,2.44,57.834,14.181,87.637,19.608,19.426,3.543,38.947.868,58.008,6.869,23.446,7.338,47.622,24.367,48.916,51.157C945.514,315.341,923.248,333.95,913.644,355.651Z" transform="translate(-115.844 -102.253)" fill="#2777b2" opacity="0.1"/>
  <g id="Group_38" data-name="Group 38" transform="translate(183.575 149.574)" opacity="0.5">
    <path id="Path_32" data-name="Path 32" d="M820.016,268.2c4.342,1.251,9.735,4.481,12.374,13.347,5.21,17.368-6.843,29.247-2.892,47.284a35.27,35.27,0,0,0,6.079,13.26c4.837,6.556,10.1,9.665,15.188,14.259a45.313,45.313,0,0,1,13.347,21.918,60.667,60.667,0,0,1,.6,28.492c-1.815,7.868-4.907,13.59-7.6,19.973a147.524,147.524,0,0,0-7.815,25.183,61.225,61.225,0,0,0-1.737,12.774,112.691,112.691,0,0,0,1.58,17.09l7.355,51.33a152.379,152.379,0,0,1,2.006,20.286c.052,7.512-1.155,13.964-2.353,20.259-2.605,13.582-5.358,27.675-11.289,34.84s-15.987,4.68-22.179-9.943c-5.887-13.894-6.009-32.478-11.2-47.344-8.18-23.446-24.454-26.573-33.476-48.916-8.684-21.432-6.009-47.761-10.421-72.18-3.144-17.515-9.839-33.494-13.807-50.8-5.705-24.931-5.141-50.809-.582-69.966s12.739-32.313,21.771-42.29c3.829-4.229,7.92-7.989,12.731-8.363,5.115-.391,9.552,6.079,14.632,7.98C808.215,268.865,814.085,266.512,820.016,268.2Z" transform="translate(-749.636 -258.67)" fill="#2777b2"/>
    <path id="Path_33" data-name="Path 33" d="M782.69,260.09s8.684,221.682,45.1,352.409" transform="translate(-740.002 -258.857)" fill="none" stroke="#535461" stroke-width="2"/>
    <path id="Path_34" data-name="Path 34" d="M820.69,286.26S781.8,321.7,789.142,389.225" transform="translate(-737.709 -262.302)" fill="none" stroke="#535461" stroke-width="2"/>
    <path id="Path_35" data-name="Path 35" d="M810.023,402.38s-63.913,12.852-59.172,51.079" transform="translate(-694.373 -277.584)" fill="none" stroke="#535461" stroke-width="2"/>
    <path id="Path_36" data-name="Path 36" d="M823.46,316.41s25.852,22.639,48.9,86.76" transform="translate(-819.98 -266.27)" fill="none" stroke="#535461" stroke-width="2"/>
    <path id="Path_37" data-name="Path 37" d="M814.03,534.341s17.646,13.894,31.809-34.571" transform="translate(-785.271 -290.402)" fill="none" stroke="#535461" stroke-width="2"/>
    <path id="Path_38" data-name="Path 38" d="M802.3,568s-35.986-4.7-39.3-27.241" transform="translate(-697.422 -295.797)" fill="none" stroke="#535461" stroke-width="2"/>
  </g>
  <path id="Path_39" data-name="Path 39" d="M964.868,96.842c8.91,1.32,19.625,5.445,24.028,18.184C997.536,140,971.259,158.905,977.312,185a39.223,39.223,0,0,0,11,18.809c9.24,9.083,19.756,13.026,29.742,19.191s20.355,15.839,25.036,30.7c4.507,14.294,2.553,30.09-2.127,41.891s-11.767,20.6-18.1,30.307a205.321,205.321,0,0,0-19.235,37.957,73,73,0,0,0-5.08,19.009c-.816,7.981.217,16.569,1.242,24.975l9.135,74.681c1.216,9.943,2.44,20.06,1.737,29.638-.79,11.055-4.056,20.694-7.277,30.107-6.947,20.3-14.381,41.4-27.467,52.642s-33.65,8.788-44.713-12.018c-10.533-19.808-8.6-47.119-17.576-68.394-14.155-33.528-47.457-36.238-63.479-68.064-15.379-30.532-6.773-69.593-12.948-105.075-4.429-25.426-16.4-48.152-22.578-73.17-8.857-36.047-4.629-74.212,7.095-102.965s30.2-49.1,50.071-64.86c8.423-6.678,17.368-12.713,27.337-13.825,10.629-1.181,19.1,7.763,29.343,10.012C940.37,99.212,952.788,95.053,964.868,96.842Z" transform="translate(-797.898 -86.427)" fill="#2777b2"/>
  <path id="Path_40" data-name="Path 40" d="M908.8,88.12s-8.38,325.437,51.548,513.624" transform="translate(-798.154 -86.65)" fill="none" stroke="#535461" stroke-width="2"/>
  <path id="Path_41" data-name="Path 41" d="M952.783,121.16s-84.772,56.81-77.512,155.372" transform="translate(-761.438 -90.998)" fill="none" stroke="#535461" stroke-width="2"/>
  <path id="Path_42" data-name="Path 42" d="M939.424,287.71s-133.8,26.5-128.521,82.227" transform="translate(-692.432 -112.918)" fill="none" stroke="#535461" stroke-width="2"/>
  <path id="Path_43" data-name="Path 43" d="M963.19,176.42s50.853,30.272,90.911,121.965" transform="translate(-939.487 -98.271)" fill="none" stroke="#535461" stroke-width="2"/>
  <path id="Path_44" data-name="Path 44" d="M953.57,493.318s34.875,18.358,69.931-54.708" transform="translate(-900.532 -132.779)" fill="none" stroke="#535461" stroke-width="2"/>
  <path id="Path_45" data-name="Path 45" d="M934.625,533.788S860.7,531.13,856.47,498.34" transform="translate(-727.336 -140.64)" fill="none" stroke="#535461" stroke-width="2"/>
  <ellipse id="Ellipse_10" data-name="Ellipse 10" cx="371.383" cy="35.673" rx="371.383" ry="35.673" transform="translate(64.656 472.127)" fill="#2777b2" opacity="0.1"/>
  <path id="Path_46" data-name="Path 46" d="M165.418,622.29s-7.277,9.552,3.361,23.881,19.408,26.5,15.822,35.456c0,0-16.048-26.686-29.108-27.059S151.046,638.338,165.418,622.29Z" transform="translate(636.177 -156.954)" fill="#1c608d"/>
  <path id="Path_47" data-name="Path 47" d="M165.842,622.29a11.785,11.785,0,0,0-1.485,2.987c-12.748,14.971-19.53,28.943-7.286,29.3,11.411.33,25.1,20.728,28.379,25.887a11.051,11.051,0,0,1-.391,1.172s-16.048-26.686-29.108-27.059S151.47,638.338,165.842,622.29Z" transform="translate(635.753 -156.954)" opacity="0.1"/>
  <path id="Path_48" data-name="Path 48" d="M185.67,635.937c0,3.352.373,6.079.868,6.079s.868-2.718.868-6.079-.469-1.737-.929-1.737S185.67,632.585,185.67,635.937Z" transform="translate(602.396 -158.47)" fill="#ffd037"/>
  <path id="Path_49" data-name="Path 49" d="M188.191,640.512c2.944,1.607,5.506,2.605,5.723,2.162s-1.98-2.041-4.924-3.639-1.78-.434-2.006,0S185.239,638.9,188.191,640.512Z" transform="translate(595.246 -159.05)" fill="#ffd037"/>
  <path id="Path_50" data-name="Path 50" d="M129.086,622.29s7.277,9.552-3.361,23.881-19.374,26.5-15.9,35.456c0,0,16.048-26.686,29.108-27.059S143.449,638.338,129.086,622.29Z" transform="translate(710.953 -156.954)" fill="#1c608d"/>
  <path id="Path_51" data-name="Path 51" d="M128.623,622.29a11.787,11.787,0,0,1,1.485,2.987c12.748,14.971,19.53,28.943,7.286,29.3-11.411.33-25.1,20.728-28.379,25.887a11.058,11.058,0,0,0,.391,1.172s16.048-26.686,29.108-27.059S142.986,638.338,128.623,622.29Z" transform="translate(711.416 -156.954)" opacity="0.1"/>
  <path id="Path_52" data-name="Path 52" d="M113.987,635.937c0,3.352-.373,6.079-.868,6.079s-.868-2.718-.868-6.079.469-1.737.929-1.737S113.987,632.585,113.987,635.937Z" transform="translate(739.573 -158.47)" fill="#ffd037"/>
  <path id="Path_53" data-name="Path 53" d="M110.571,640.512c-2.944,1.607-5.506,2.605-5.723,2.162s1.98-2.041,4.924-3.639,1.78-.434,2.006,0S113.514,638.9,110.571,640.512Z" transform="translate(747.635 -159.05)" fill="#ffd037"/>
  <path id="Path_54" data-name="Path 54" d="M190.621,687.524s-20.346-.625-26.477-4.993-31.262-9.552-32.816-2.605-30.576,34.831-7.607,35.013,53.371-3.578,59.493-7.3S190.621,687.524,190.621,687.524Z" transform="translate(660.629 -164.093)" fill="#fff"/>
  <path id="Path_55" data-name="Path 55" d="M123.348,714.207c22.969.182,53.371-3.577,59.493-7.3,4.663-2.84,6.522-13.026,7.138-17.724h.677s-1.285,16.413-7.407,20.138-36.524,7.494-59.528,7.312c-6.634-.052-8.918-2.414-8.8-5.905C115.906,712.835,118.415,714.155,123.348,714.207Z" transform="translate(660.584 -165.757)" opacity="0.2"/>
  <path id="Path_56" data-name="Path 56" d="M920.79,526.983s-101.818-65.051-172.21-65.051c0,0-84.746-13.2-176.925,9.109S445.427,522.277,419.87,513.784l107.367,3.144Z" transform="translate(-334.364 -135.338)" fill="#8cd0f3"/>
  <path id="Path_57" data-name="Path 57" d="M920.79,526.983s-101.818-65.051-172.21-65.051c0,0-84.746-13.2-176.925,9.109S445.427,522.277,419.87,513.784l107.367,3.144Z" transform="translate(-334.364 -135.338)" fill="#8cd0f3" opacity="0.1"/>
  <path id="Path_58" data-name="Path 58" d="M152.6,550.978H773.566l-17.073-68.4L650.9,454.5,152.6,467.6Z" transform="translate(-46.088 -59.772)" fill="#121c3f"/>
  <path id="Path_59" data-name="Path 59" d="M210.16,584.38v21.831s18.436,13.373,20.112,23.846c0,0,26.4,6.7,33.937,6.7a21.891,21.891,0,0,1,2.214.078,62.7,62.7,0,0,1-2.753-9.717,64,64,0,1,1,121.461,13.026h35.795s.33.113.868.347c1.919.869,6.443,3.161,7.095,6.765h296.65l6.079-.052a62.755,62.755,0,0,1-3.474-6.721,62.017,62.017,0,0,1-4.22-13.347A64.056,64.056,0,1,1,841.946,647c4.238-1.033,13.486-3.969,13.486-3.969s39.381-4.185,49.437-13.026l-1.52-1.051-6.443-4.4,2.935-11.289a6.954,6.954,0,0,0,.868-1.546c.781-1.884,1.467-5.384-1.294-9.778-4.186-6.7-2.093-30.585-2.093-30.585s-56.984-39.381-169.275-48.187c0,0-2.683,2.084-8.224,2.518-3.751.3-8.814-.156-15.249-2.518,0,0-9.214,4.186-48.63-18.436,0,0-67.048-46.094-155.042-41.891,0,0-90.5-5.453-167.6,24.315-33.224,12.817-58.5,19.651-76.522,23.264-16.638,3.343-27.085,3.96-31.87,4.012h-3.065s0,9.978-.53,21.762v.061c-.191,4.1-.451,8.415-.816,12.609v.261c-1.007,11.68-2.744,22.291-5.757,24.393Z" transform="translate(-136.334 -135.916)" fill="#2856b8"/>
  <path id="Path_60" data-name="Path 60" d="M284.927,584.322s-25.244-19.695-56.671-15.5c0,0,28.6,22.63,41.483,21.163l2.2-1.884,13.026.729S286.907,585.789,284.927,584.322Z" transform="translate(467.005 -149.839)" fill="#8cd0f3"/>
  <path id="Path_61" data-name="Path 61" d="M211.95,626v11.628s.868,11.107,10.9,11.523l28.657,1.416-6.435-4.4,2.935-11.289a6.717,6.717,0,0,0,.868-1.537c-2.605-2.4-8.745-6.443-21.232-7.312Z" transform="translate(515.476 -157.442)" fill="#fff" opacity="0.2"/>
  <path id="Path_62" data-name="Path 62" d="M433.056,569.748l-22-.868s8.9,7.017,15.188,7.65S433.056,569.748,433.056,569.748Z" transform="translate(161.021 -149.924)" fill="#fff" opacity="0.2"/>
  <path id="Path_63" data-name="Path 63" d="M733.248,643.6s-198.921-27.658-247-18.861c0,0-14.137.947-19.487,6.6s0,1.988,0,1.988Z" transform="translate(-185.474 -157.049)" fill="#fff" opacity="0.2"/>
  <path id="Path_64" data-name="Path 64" d="M625.713,556.393s-2.518-4.715-6.6-4.819l-26.5-1.364s.417,3.665,5.132,5.028Z" transform="translate(-189.292 -147.467)" fill="#18218a" opacity="0.5"/>
  <path id="Path_65" data-name="Path 65" d="M802.313,547.218s-2.518-4.715-6.6-4.819l-26.5-1.4s.417,3.665,5.132,5.028Z" transform="translate(-519.249 -146.255)" fill="#18218a" opacity="0.5"/>
  <path id="Path_66" data-name="Path 66" d="M481.62,473.606l20.338,53.336,73.326.078h65.581s-9.8-7.19-25.574-16.352c-5.21-3.039-11.124-6.287-17.541-9.552-5.9-3.022-12.261-6.079-18.939-8.979-5.21-2.292-10.7-4.5-16.308-6.556C537.067,476.28,508.479,470.036,481.62,473.606Z" transform="translate(-108.061 -137.251)" fill="#8cd0f3"/>
  <path id="Path_67" data-name="Path 67" d="M710.688,512.514s30.636,4.542,59.875,7.9c11.176,1.285,22.144,2.4,31.123,3.013l1.251.087c3.473.226,6.7.374,9.43.426,4.342.078,7.59-.113,9.214-.634l-8.449-51.018s-10.421.113-25.835.868l-3.369.182c-3.2.182-6.582.391-10.108.634-5.037.347-10.342.764-15.813,1.268-26.416,2.423-56.341,6.773-75.289,14.606C642.4,506.539,710.688,512.514,710.688,512.514Z" transform="translate(-452.347 -137.212)" fill="#8cd0f3"/>
  <path id="Path_68" data-name="Path 68" d="M939.617,548.157v13.616s22,.313,17.281-4.081a67.394,67.394,0,0,1-8.276-9.552Z" transform="translate(-822.475 -147.195)" fill="#8cd0f3"/>
  <path id="Path_69" data-name="Path 69" d="M977.66,559.241l17.862,1.4V544.27s-8.276-11.628-16.551,1.259l-.478.755Z" transform="translate(-893.473 -146.052)" fill="#8cd0f3"/>
  <circle id="Ellipse_11" data-name="Ellipse 11" cx="51.122" cy="51.122" r="51.122" transform="translate(599.252 427.509)" fill="#182a7c"/>
  <path id="Path_70" data-name="Path 70" d="M298.687,631.324a41.144,41.144,0,1,0,.868-8.337A41.144,41.144,0,0,0,298.687,631.324Z" transform="translate(310.682 -152.736)" fill="#3f8ffe"/>
  <ellipse id="Ellipse_12" data-name="Ellipse 12" cx="35.248" cy="35.335" rx="35.248" ry="35.335" transform="translate(615.187 443.245)" fill="#18218a" opacity="0.5"/>
  <path id="Path_71" data-name="Path 71" d="M335.39,591.859v1.494L347.122,632.2l9.413-40.979A41.238,41.238,0,0,0,335.39,591.859Z" transform="translate(303.252 -152.722)" fill="#3f8ffe"/>
  <path id="Path_72" data-name="Path 72" d="M335.83,677.152a41.25,41.25,0,0,0,20.676.712l-9.022-39.295Z" transform="translate(302.899 -159.096)" fill="#3f8ffe"/>
  <path id="Path_73" data-name="Path 73" d="M346.271,636.288a41.228,41.228,0,0,0,1.963,12.626h.165l38.843-11.732-40.172-9.222A41.46,41.46,0,0,0,346.271,636.288Z" transform="translate(263.099 -157.7)" fill="#3f8ffe"/>
  <path id="Path_74" data-name="Path 74" d="M298.886,637.168,337.729,648.9h.3a41.579,41.579,0,0,0,1.12-20.98Z" transform="translate(351.489 -157.695)" fill="#3f8ffe"/>
  <ellipse id="Ellipse_13" data-name="Ellipse 13" cx="4.507" cy="4.507" rx="4.507" ry="4.507" transform="translate(645.928 474.072)" fill="#182a7c"/>
  <circle id="Ellipse_14" data-name="Ellipse 14" cx="51.122" cy="51.122" r="51.122" transform="translate(139.294 427.509)" fill="#182a7c"/>
  <path id="Path_75" data-name="Path 75" d="M828.367,631.324a41.144,41.144,0,1,0,.868-8.337A41.144,41.144,0,0,0,828.367,631.324Z" transform="translate(-678.964 -152.736)" fill="#3f8ffe"/>
  <ellipse id="Ellipse_15" data-name="Ellipse 15" cx="35.248" cy="35.335" rx="35.248" ry="35.335" transform="translate(155.22 443.245)" fill="#18218a" opacity="0.5"/>
  <path id="Path_76" data-name="Path 76" d="M865.06,591.86v1.494L876.792,632.2l9.413-40.979A41.237,41.237,0,0,0,865.06,591.86Z" transform="translate(-686.376 -152.722)" fill="#3f8ffe"/>
  <path id="Path_77" data-name="Path 77" d="M865.51,677.152a41.25,41.25,0,0,0,20.676.712l-9.023-39.295Z" transform="translate(-686.748 -159.096)" fill="#3f8ffe"/>
  <path id="Path_78" data-name="Path 78" d="M875.9,636.286a41.235,41.235,0,0,0,1.963,12.626h.2l38.851-11.741-40.172-9.222A41.474,41.474,0,0,0,875.9,636.286Z" transform="translate(-726.498 -157.699)" fill="#3f8ffe"/>
  <path id="Path_79" data-name="Path 79" d="M828.556,637.168,867.4,648.9h.3a41.578,41.578,0,0,0,1.12-20.98Z" transform="translate(-638.14 -157.695)" fill="#3f8ffe"/>
  <ellipse id="Ellipse_16" data-name="Ellipse 16" cx="4.507" cy="4.507" rx="4.507" ry="4.507" transform="translate(185.961 474.072)" fill="#182a7c"/>
  <path id="Path_80" data-name="Path 80" d="M500.14,505.5l12.843,25.887h14.2l-9.492-16.334C512.454,512.013,506.557,508.774,500.14,505.5Z" transform="translate(-10.461 -141.583)" fill="#fff" opacity="0.2"/>
  <path id="Path_81" data-name="Path 81" d="M535.39,487.61l12.791,41.4H567.06l-15.37-34.857C546.445,491.874,540.991,489.685,535.39,487.61Z" transform="translate(-80.95 -139.228)" fill="#fff" opacity="0.2"/>
  <path id="Path_82" data-name="Path 82" d="M680.61,474.158l27.867,49.42,1.25.087c3.474.226,6.7.373,9.431.426l-25.07-50.74-3.369.182C687.557,473.706,684.153,473.914,680.61,474.158Z" transform="translate(-359.154 -137.351)" fill="#fff" opacity="0.2"/>
  <path id="Path_83" data-name="Path 83" d="M497.8,448.63l15.909,109.582L380.834,555.3,359.02,449.108Z" transform="translate(34.52 -59)" fill="none" stroke="#fff" stroke-width="1" opacity="0.2"/>
  <path id="Path_84" data-name="Path 84" d="M409.67,667.439c1.919.869,6.444,3.161,7.095,6.765H713.423l6.079-.052a62.69,62.69,0,0,1-3.474-6.721Z" transform="translate(-124.218 -162.895)" fill="#18218a" opacity="0.5"/>
  <path id="Path_85" data-name="Path 85" d="M425.352,755.322c-2.023-1.884-3.925-4.107-4.516-6.808s.564-5.948,3.152-6.947c2.892-1.112,5.992.868,8.337,2.927s5.037,4.342,8.1,3.908a12.34,12.34,0,0,1-3.812-11.55,4.828,4.828,0,0,1,1.059-2.345c1.607-1.737,4.524-.981,6.444.374,6.079,4.342,7.815,12.618,7.859,20.1.617-2.7.1-5.514.113-8.284s.773-5.836,3.109-7.329a9.37,9.37,0,0,1,4.741-1.112c2.753-.1,5.818.174,7.694,2.189,2.336,2.5,1.737,6.7-.3,9.448s-5.123,4.481-7.963,6.382a17.666,17.666,0,0,0-5.688,5.428,5.367,5.367,0,0,0-.426.972H436.007a48.078,48.078,0,0,1-10.655-7.355Z" transform="translate(116.578 -171.59)" fill="#fff"/>
  <path id="Path_86" data-name="Path 86" d="M852.433,773.013a10.135,10.135,0,0,1-3.326-5.019c-.434-2,.417-4.386,2.327-5.115,2.136-.816,4.42.66,6.148,2.162s3.717,3.2,5.983,2.883a9.1,9.1,0,0,1-2.813-8.519,3.56,3.56,0,0,1,.781-1.737c1.19-1.268,3.335-.721,4.759.278,4.516,3.178,5.775,9.309,5.8,14.832.452-1.988.07-4.064.087-6.079s.573-4.342,2.293-5.4a6.947,6.947,0,0,1,3.473-.825c2.032-.078,4.29.13,5.679,1.615,1.737,1.841,1.277,4.941-.226,6.947s-3.777,3.3-5.879,4.707a13.022,13.022,0,0,0-4.2,4,4,4,0,0,0-.313.712H860.283a35.447,35.447,0,0,1-7.85-5.445Z" transform="translate(-670.961 -174.674)" fill="#fff"/>
  <path id="Path_87" data-name="Path 87" d="M917.433,804.822a10.139,10.139,0,0,1-3.326-5.019c-.434-2,.417-4.385,2.327-5.115,2.136-.816,4.42.66,6.148,2.162s3.717,3.2,5.983,2.883a9.1,9.1,0,0,1-2.814-8.519,3.566,3.566,0,0,1,.782-1.737c1.19-1.268,3.334-.721,4.759.278,4.515,3.178,5.775,9.309,5.8,14.832.452-1.988.069-4.064.087-6.079s.573-4.342,2.292-5.4a6.947,6.947,0,0,1,3.474-.825c2.032-.078,4.29.13,5.679,1.615,1.737,1.841,1.276,4.941-.226,6.947s-3.777,3.3-5.879,4.707a13.03,13.03,0,0,0-4.2,4,3.972,3.972,0,0,0-.312.712H925.283A35.454,35.454,0,0,1,917.433,804.822Z" transform="translate(-792.406 -178.861)" fill="#fff"/>
  <path id="Path_88" data-name="Path 88" d="M540.514,710.567s3.031,1.65,4.411-7.694c.868-6.079,3.4-18.609,5.054-26.746l.208-1.033a14.192,14.192,0,0,1-1.4-.521s9.656-37.341,7.451-45.608,0-23.082,0-23.082l5.792-19.5s14.346-4.95,19.86-6.322,20.963-10.994,20.963-10.994a11.939,11.939,0,0,0-.747.964l.617-.373a23.028,23.028,0,0,0,3.039-3.474,21.868,21.868,0,0,1-5.714-11.88,24.663,24.663,0,0,1,1.233-25.088,12.3,12.3,0,0,1-2.11-3.943,6.44,6.44,0,0,1-.234-2.014,5.358,5.358,0,0,1,3.022-5.323,5.271,5.271,0,0,1,4.151.043c1.224.556,2.188,1.6,3.526,1.876,2.232.46,4.142-1.329,5.9-2.657a17.741,17.741,0,0,1,9.37-3.474,9.1,9.1,0,0,1,4.342.573,17.466,17.466,0,0,1,3.6,2.7c3.977,3.2,9.553,4.1,14.546,5.844.955.33,2.015.868,2.189,1.737a1.268,1.268,0,0,1,0,.521h0a1.286,1.286,0,0,1-.052.66c9.309,1.563,18.419,8.632,18.419,8.632l1.529,1.416a2.918,2.918,0,0,1,3.187.269l3.074,2.414a2.892,2.892,0,0,1,.695,3.769L698.908,563.1l.486.452v-.078S716.762,576.662,716.762,586c0,6.747-5.21,10.907-8.05,12.7a21.536,21.536,0,0,1,5.61,8.684h0v2.11h0v.3l.07.382v.157l.043.26v.538l.061.347h0l.078.434V612l.061.365v.174l.07.4v.1l.078.452v.2l.2,1.138h0l.1.617v.1l.113.634v.087l.113.643v.052l.121.677v.148l.122.669v.148l.113.66v.078l.13.747v.139l.3,1.667h0l.148.868v.13l.148.868v.061l.321,1.737v.147l.156.868v.122l.339,1.832v.078l.174.929v.078l.347,1.893v.122l.174.938v.07l.365,1.936v.1l.182.955v.069l.374,1.963v.078l.182.955v.078l1.589,1.963v.087l.191.947v.052l.391,1.928v.052l.191.938v.052l.382,1.841v.078l.182.868v.078l.373,1.737v.061l.182.868v.087l.365,1.641v.043l.174.773v.078q.182.781.356,1.511h0l.174.712v.061q.174.712.339,1.363h0l.165.625v.069l.156.6c.695,2.605,1.3,4.342,1.737,4.75a4.877,4.877,0,0,1,1.016,1.6h0l.069.174.07.191.061.191.286.261.061.2.052.182.052.208v.191l.043.208v.191a1.311,1.311,0,0,0,.07.417v6.834l-2.605.79s-1.311.721-3.334,1.659c.286,8.762,1.094,20.624,3.291,27.884,4.9.252,16.994.764,19.183-.113,2.761-1.1,20.416-3.847,14.893,8.788-2.31,5.3-7.338,9.292-12.392,12.157a15.419,15.419,0,0,0,1.91.495c4.5.868,5.749,2.371,5.575,3.917.321,2.605-4.107,5.514-4.472,5.7-.556.278-19.3,3.3-23.725,1.919s-22.343-4.672-22.343-4.672v-.547h0s.243-5.4.92-10.525c-2.032-.3-4.246-.564-6.4-.729a8.736,8.736,0,0,1-4.724,6.035c-11.862,6.079-15.726-2.2-15.726-2.2s-16.039,3.083-25,.868a26.372,26.372,0,0,1-2.3,1.9c-2.909,2.093-10.742,3.526-19.5,3.63a27.64,27.64,0,0,1-7-.2,64.839,64.839,0,0,1-11.463-1.8c-10.551-2.735-12.87-12.548-13.373-17-.417-.122-.712-.556-.869-1.372a3.954,3.954,0,0,1-.365-1.416,41.745,41.745,0,0,0-1.129-5.974l-13.026.729c-5.818,10.56-10.959,18.957-10.959,18.957l-8.823-1.1a50.96,50.96,0,0,0,10.2-10.994c4.412-6.591,4.412-38.209,4.412-38.209l-.5-19.252v-.73c-.816,5.705-7.286,22.257-8.015,22.5-.53.174-1.051.33-1.563.477l-.469,1.233c-3.682,9.761-13.026,34.736-13.686,38.678-.868,4.95-35.309,6.869-43.028,4.394S540.514,710.567,540.514,710.567ZM663.538,601.22l12.626,18.965c4.533-7.815,9.257-15.006,13.529-19.764C678.492,600.795,665.579,601.194,663.538,601.22Zm1.919-48.63a2.926,2.926,0,0,1-3.048-.339l-1.077-.868a2.892,2.892,0,0,1-.738-3.717l-.642-.634a96.024,96.024,0,0,1-13.13-3.187A24.518,24.518,0,0,1,643.609,555a21.765,21.765,0,0,1-2.119,6.252c1.98-.165,4.133-.278,6.192-.26a32.338,32.338,0,0,1,5.375.339c6.617,1.1,7.451,13.191,7.451,13.191s13.3,4.672,21.284,4.837a10,10,0,0,0,2.987-.443l.807-.052-1.085-2.97s.469.148,1.242.3q-.374-.564-.782-1.146c-5.054-7.251-13.807-16.595-19.5-22.439ZM692.777,699.3a51.3,51.3,0,0,1,2.735,5.384c3.135.608,7.407.947,9.674-.99a5.644,5.644,0,0,1,3.63-1.277l-.052-.1c-1.563-3-2.892-9.708-3.934-16.656-5.054,0-9.856-4.229-9.856-4.229l-6.365,2.18-.234.443-.156.287-.252.469-.156.3-.252.46-.165.3-.252.451-.165.3-.243.443-.165.3-.252.443-.165.287-.252.434-.156.278-.252.434-.156.269-.243.426-.156.269-.252.425-.148.243-.252.417-.148.243-.252.417-.131.217-.26.426-.1.156c-.451.738-.868,1.442-1.294,2.1l-.061.1-.243.382-.1.165-.217.347-.122.182-.2.313-.122.2-.182.287-.13.2-.174.269-.122.191-.156.243-.121.191-.148.226-.122.191-.139.208-.122.182h0A55.927,55.927,0,0,0,692.777,699.3Z" transform="translate(-252.291 -142.657)" fill="url(#linear-gradient)"/>
  <path id="Path_89" data-name="Path 89" d="M729.049,741.193c7.529,2.423,41.144.539,41.952-4.342.643-3.882,9.752-28.309,13.347-37.861l1.442-3.821L768.309,691.4s-.643,3.065-1.528,7.433c-1.615,7.972-4.055,20.277-4.924,26.182-1.346,9.144-4.342,7.529-4.342,7.529S721.547,738.77,729.049,741.193Z" transform="translate(-466.957 -166.049)" fill="#ffbdc6"/>
  <path id="Path_90" data-name="Path 90" d="M673.487,566s1.346,8.067-10.221,15.631-1.615,34.692-1.615,34.692l8.554.478a21.023,21.023,0,0,0,22.109-19.035h0s-4.837-7.816,4.038-27.971Z" transform="translate(-316.427 -149.545)" fill="#ffbdc6"/>
  <path id="Path_91" data-name="Path 91" d="M603.4,551.369s16.647,16.23,24.384,27.415a39.45,39.45,0,0,1,2.51,4.047c5.644,10.759,18.774-6.73,14.233-12.774l-3.135-2.927-30.185-28.135s-20.711-16.135-31.192-4.568S603.4,551.369,603.4,551.369Z" transform="translate(-196.355 -144.84)" fill="#ffbdc6"/>
  <circle id="Ellipse_17" data-name="Ellipse 17" cx="24.202" cy="24.202" r="24.202" transform="translate(345.866 378.159)" fill="#a66477"/>
  <path id="Path_92" data-name="Path 92" d="M519.179,730.927s18.019,1.077,20.711,0,19.895-3.76,14.485,8.614-25.817,17.481-25.817,17.481L513.8,753.253Z" transform="translate(-50.558 -171.119)" fill="#7679b4"/>
  <path id="Path_93" data-name="Path 93" d="M519.179,730.927s18.019,1.077,20.711,0,19.895-3.76,14.485,8.614-25.817,17.481-25.817,17.481L513.8,753.253Z" transform="translate(-50.558 -171.119)" opacity="0.05"/>
  <path id="Path_94" data-name="Path 94" d="M665.221,670.08l-36.169,14.693-20.572,43.7s-.269,15.327,13.174,18.827,32.269,1.884,37.115-1.615,24.74-24.2,24.74-24.2Z" transform="translate(-260.869 -163.243)" fill="#7679b4"/>
  <path id="Path_95" data-name="Path 95" d="M657.6,670.08l-31.305,11.732-17.811,34.97s-.234,12.27,11.4,15.066,27.936,1.5,32.13-1.294,21.414-19.374,21.414-19.374Z" transform="translate(-250.787 -163.243)" opacity="0.05"/>
  <path id="Path_96" data-name="Path 96" d="M563.6,730.89s9.413,3.23,13.174,0,10.49.807,10.49.807l-2.97,17.481s-13.443-2.961-20.711-2.154Z" transform="translate(-125.63 -171.082)" fill="#ffbdc6"/>
  <path id="Path_97" data-name="Path 97" d="M563.6,730.89s9.413,3.23,13.174,0,10.49.807,10.49.807l-2.97,17.481s-13.443-2.961-20.711-2.154Z" transform="translate(-125.63 -171.082)" opacity="0.05"/>
  <path id="Path_98" data-name="Path 98" d="M578.575,700.605l8.588-2.961s9.413,8.336,15.631,1.346-5.645-36.038-5.645-36.038L584.515,642.51l-9.144,28.778-8.336,13.981Z" transform="translate(-145.966 -159.615)" fill="#565388"/>
  <path id="Path_99" data-name="Path 99" d="M578.575,700.605l8.588-2.961s9.413,8.336,15.631,1.346-5.645-36.038-5.645-36.038L584.515,642.51l-9.144,28.778-8.336,13.981Z" transform="translate(-145.966 -159.615)" opacity="0.05"/>
  <path id="Path_100" data-name="Path 100" d="M608.844,621.07l-19.365,2.683L585.71,641.5l23.933-1.346Z" transform="translate(-258.271 -81.695)" fill="#565388"/>
  <path id="Path_101" data-name="Path 101" d="M608.844,621.07l-19.365,2.683L585.71,641.5l23.933-1.346Z" transform="translate(-258.271 -81.695)" opacity="0.05"/>
  <path id="Path_102" data-name="Path 102" d="M660.007,595.45s-8.067,30.923-33.867,8.606l-6.99,88.74s8.606,13.712,9.952,26.052,24.74-38.209,38.721-38.452,27.832-19.764,27.832-19.764L679.92,628.223Z" transform="translate(-282.28 -153.421)" opacity="0.1"/>
  <path id="Path_103" data-name="Path 103" d="M660.318,594.52s-8.067,30.923-33.867,8.606l-6.991,88.74s8.606,13.712,9.952,26.052,24.74-38.209,38.721-38.452S695.965,659.7,695.965,659.7L680.23,627.293Z" transform="translate(-282.86 -153.299)" fill="#f2f1f2"/>
  <path id="Path_104" data-name="Path 104" d="M571.806,571.427s11.289-1.884,17.75-.808,7.26,12.9,7.26,12.9,18.288,6.452,24.471,4.342c0,0,30.393-2.154,30.393,6.99s-9.691,13.391-9.691,13.391-42.195,1.424-42.49,1.346c-9.683-2.692.269,0,.269,0l17.48,26.355-16.135,22.318L583.9,645.631s-2.154-11.836-7.815-17.75c-4.029-4.229-9.3-23.264-11.984-33.8a17.28,17.28,0,0,1,1.954-13.191Z" transform="translate(-190.041 -150.109)" opacity="0.1"/>
  <path id="Path_105" data-name="Path 105" d="M578,584.374a39.469,39.469,0,0,1,2.51,4.046c5.644,10.76,18.774-6.73,14.233-12.774l-3.135-2.926C592.754,586.6,581.456,585.12,578,584.374Z" transform="translate(-146.572 -150.429)" opacity="0.1"/>
  <path id="Path_106" data-name="Path 106" d="M627.226,614.159h.3S617.543,611.467,627.226,614.159Z" transform="translate(-217.499 -155.726)" opacity="0.1"/>
  <path id="Path_107" data-name="Path 107" d="M570.886,571.427s11.289-1.884,17.75-.808,7.26,12.9,7.26,12.9,18.288,6.452,24.471,4.342L619.29,584.9s16.4,5.106,14.52-12.131c0,0,16.942,12.9,16.942,22.048s-9.683,13.425-9.683,13.425-42.195,1.424-42.49,1.346c-9.683-2.692.269,0,.269,0l17.481,26.355-16.135,22.318-17.211-12.635s-2.154-11.836-7.816-17.75c-4.029-4.229-9.3-23.264-11.984-33.8a17.282,17.282,0,0,1,1.954-13.191Z" transform="translate(-188.313 -150.109)" fill="#565388"/>
  <path id="Path_108" data-name="Path 108" d="M718.321,672.25v1.476a3.214,3.214,0,0,0,0-1.476Z" transform="translate(-391.151 -163.529)" opacity="0.1"/>
  <path id="Path_109" data-name="Path 109" d="M728.02,698.873a30.734,30.734,0,0,0,17.568.156l1.442-3.821-17.481-3.769S728.914,694.531,728.02,698.873Z" transform="translate(-428.196 -166.055)" opacity="0.1"/>
  <path id="Path_110" data-name="Path 110" d="M736.028,579.34s-15.058,9.413-20.442,10.759-19.365,6.183-19.365,6.183l-5.645,19.1s-2.154,14.519,0,22.578,22.318,23.394,21.241,20.972l.538,21.241s0,30.923-4.342,37.341,8.206-6.322,8.206-6.322,15.2-22.457,17.073-36.707-1.068-69.062-1.068-69.062l2.692-3.769S729.307,587.138,736.028,579.34Z" transform="translate(-383.849 -151.301)" opacity="0.1"/>
  <path id="Path_111" data-name="Path 111" d="M743.261,579.34S728.2,588.753,722.819,590.1s-19.365,6.183-19.365,6.183l-5.644,19.1s-2.154,14.519,0,22.578-7.26,44.644-7.26,44.644,8.684,4.012,20.711,0c.808-.269,8.875-21.241,7.815-23.664l.539,21.241s0,30.923-4.342,37.34a49.809,49.809,0,0,1-9.952,10.76l8.606,1.077s24.766-40.571,26.651-54.8-1.077-69.115-1.077-69.115l2.692-3.769S736.54,587.138,743.261,579.34Z" transform="translate(-391.889 -151.301)" fill="#565388"/>
  <path id="Path_112" data-name="Path 112" d="M572.332,712.221s18.019-26.052,17.212-38.209c0,0,2.154,16.673,4.568,17.75s26.625-6.461,26.625-6.461,1.077-7.816-1.615-10.49-11.028-52.442-11.028-52.442-2.961-13.443-15.865-14.25-41.952,64.807-41.952,64.807S545.977,712.221,572.332,712.221Z" transform="translate(-147.539 -155.088)" fill="#7679b4"/>
  <path id="Path_113" data-name="Path 113" d="M567.523,687.11s-.538,37.645,6.183,43.836-19.634,9.413-19.634,9.413,4.568-9.144.807-16.4S548.7,687.11,548.7,687.11Z" transform="translate(-100.248 -165.485)" fill="#ffbdc6"/>
  <path id="Path_114" data-name="Path 114" d="M536.569,736.48s2.692-6.721,9.952-1.346c0,0,6.452,15.058,17.75,17.211s1.615,8.606,1.077,8.875-18.827,3.23-23.125,1.884-21.779-4.568-21.779-4.568.807-17.75,3.473-19.1S525.272,747.483,536.569,736.48Z" transform="translate(-70.632 -171.531)" opacity="0.05"/>
  <path id="Path_115" data-name="Path 115" d="M536.578,737.07s2.692-6.721,9.952-1.346c0,0,6.452,15.058,17.75,17.211s1.615,8.606,1.077,8.875-18.826,3.23-23.125,1.885-21.788-4.559-21.788-4.559.807-17.75,3.474-19.1S525.28,748.09,536.578,737.07Z" transform="translate(-70.64 -171.609)" fill="#7679b4"/>
  <path id="Path_116" data-name="Path 116" d="M615.5,542.808a125.139,125.139,0,0,1-7.329,10.221,2.839,2.839,0,0,0,.408,4.081l1.051.825a2.84,2.84,0,0,0,4.047-.564,32.068,32.068,0,0,1,8.684-8.224,2.84,2.84,0,0,0,.261-4.637l-3-2.362a2.84,2.84,0,0,0-4.125.66Z" transform="translate(-200.197 -146.326)" fill="#565388"/>
  <path id="Path_117" data-name="Path 117" d="M658,575.672c3.474-4.889,2.814-8.762,2.814-8.762l22.882,3.8a73.826,73.826,0,0,0-3.908,10.968A21.5,21.5,0,0,1,658,575.672Z" transform="translate(-304.058 -149.665)" opacity="0.1"/>
  <circle id="Ellipse_18" data-name="Ellipse 18" cx="21.51" cy="21.51" r="21.51" transform="translate(348.419 389.049)" fill="#ffbdc6"/>
  <path id="Path_118" data-name="Path 118" d="M669.715,542.506c-2.032-.339-3.838-1.528-5.9-1.633-2.605-.13-4.959,1.537-6.791,3.256s-3.613,3.682-6.131,4.429a15.158,15.158,0,0,1-4.915.33,4.571,4.571,0,0,1-2.605-.66,3.286,3.286,0,0,1-.868-1.329,12.635,12.635,0,0,1,.078-10.238,1.736,1.736,0,0,0,.243-1.111,1.681,1.681,0,0,0-.373-.617c-1.737-2.049-3.569-4.1-4.272-6.582s.156-5.54,2.718-6.643a5.118,5.118,0,0,1,4.047,0c1.2.547,2.128,1.563,3.473,1.832,2.18.452,4.047-1.3,5.749-2.605a17.253,17.253,0,0,1,9.127-3.4,8.839,8.839,0,0,1,4.264.564,17.044,17.044,0,0,1,3.474,2.605c3.882,3.135,9.318,4.012,14.181,5.723.929.33,1.963.816,2.136,1.737s-.868,1.85-1.91,2.249a6.991,6.991,0,0,0-2.935,1.467c-.868,1.042-.59,2.518-.747,3.83-.321,2.605-2.605,4.021-5.132,4.776C674.534,541.151,671.79,542.853,669.715,542.506Z" transform="translate(-290.32 -143.159)" opacity="0.1"/>
  <path id="Path_119" data-name="Path 119" d="M669.855,541.9c-2.032-.339-3.838-1.528-5.9-1.633-2.605-.13-4.958,1.537-6.791,3.256s-3.612,3.682-6.131,4.429a15.171,15.171,0,0,1-4.915.33,4.564,4.564,0,0,1-2.605-.66,3.277,3.277,0,0,1-.868-1.329,12.634,12.634,0,0,1,.078-10.238,1.736,1.736,0,0,0,.243-1.112,1.682,1.682,0,0,0-.373-.616c-1.737-2.049-3.569-4.1-4.273-6.582s.156-5.54,2.718-6.643a5.114,5.114,0,0,1,4.047,0c1.2.547,2.128,1.563,3.474,1.832,2.18.452,4.047-1.3,5.749-2.605a17.254,17.254,0,0,1,9.005-3.334,8.838,8.838,0,0,1,4.264.565,17.027,17.027,0,0,1,3.474,2.6c3.882,3.135,9.318,4.012,14.181,5.723.929.33,1.963.816,2.136,1.737s-.868,1.85-1.91,2.249a6.987,6.987,0,0,0-2.935,1.467c-.868,1.042-.59,2.518-.747,3.83-.321,2.6-2.605,4.02-5.132,4.776C674.674,540.542,671.93,542.244,669.855,541.9Z" transform="translate(-290.461 -143.087)" fill="#a66477"/>
  <path id="Path_120" data-name="Path 120" d="M684.41,664.84s-15.362,2.605-19.2,10.9-26.92,30.732-26.92,30.732" transform="translate(-287.657 -162.554)" opacity="0.05"/>
  <g id="Group_39" data-name="Group 39" transform="translate(404.239 465.632)" opacity="0.05">
    <path id="Path_121" data-name="Path 121" d="M551.724,700.235c2.423,1.077,26.625-6.452,26.625-6.452a25.69,25.69,0,0,0-.078-7.043c1.389,3.352.617,8.927.617,8.927s-24.2,7.529-26.625,6.452c-.8-.356-1.572-2.423-2.249-5.037C550.552,698.758,551.125,699.992,551.724,700.235Z" transform="translate(-509.929 -631.068)"/>
    <path id="Path_122" data-name="Path 122" d="M554.09,622.63a15.821,15.821,0,0,1,.5,1.667s5.836,34.848,9.318,47.761C560.69,661.577,554.611,625.73,554.09,622.63Z" transform="translate(-498.279 -622.63)"/>
    <path id="Path_123" data-name="Path 123" d="M606.206,720.029s18.019-26.052,17.211-38.209c0,0,.191,1.511.53,3.647-.816,12.713-17.2,36.455-17.2,36.455-12.531,0-18.132-8.875-20.555-18.193C588.864,712.309,594.518,720.029,606.206,720.029Z" transform="translate(-586.19 -630.42)"/>
  </g>
  <path id="Path_124" data-name="Path 124" d="M578.278,695.816s-16.43,9.049-22.352,4.742-2.153-11.029-2.153-11.029L558.348,682h15.327l5.106,8.875Z" transform="translate(-107.607 -164.812)" fill="#7679b4"/>
  <path id="Path_125" data-name="Path 125" d="M584.723,735.507s-1.077-21.51,26.355-21.241,1.077,0,1.077,0,10.759-3.23,24.2,4.342,28.778,5.914,28.778,5.914,12.374,20.442.807,26.356-15.327-2.2-15.327-2.2-23.664,4.568-29.048-1.615a27.607,27.607,0,0,1-29.847,5.957S578.271,747.065,584.723,735.507Z" transform="translate(-226.092 -168.969)" fill="#7679b4"/>
</svg>
