<svg xmlns="http://www.w3.org/2000/svg" xmlns:xlink="http://www.w3.org/1999/xlink" width="124" height="127" viewBox="0 0 124 127">
  <defs>
    <linearGradient id="linear-gradient" x1="0.5" x2="0.5" y2="1" gradientUnits="objectBoundingBox">
      <stop offset="0" stop-color="#1c608d"/>
      <stop offset="1" stop-color="#3192d9"/>
    </linearGradient>
    <filter id="Ellipse_341" x="0" y="3" width="124" height="124" filterUnits="userSpaceOnUse">
      <feOffset dy="5" input="SourceAlpha"/>
      <feGaussianBlur stdDeviation="5" result="blur"/>
      <feFlood flood-color="#2777b2" flood-opacity="0.302"/>
      <feComposite operator="in" in2="blur"/>
      <feComposite in="SourceGraphic"/>
    </filter>
  </defs>
  <g id="Group_1083" data-name="Group 1083" transform="translate(-257.01 -140.01)">
    <g id="Group_1109" data-name="Group 1109" transform="translate(259.02 140.02)">
      <g id="Ellipse_340" data-name="Ellipse 340" transform="translate(-0.01 -0.01)" fill="#fff" stroke="#3192d9" stroke-width="1">
        <circle cx="60" cy="60" r="60" stroke="none"/>
        <circle cx="60" cy="60" r="59.5" fill="none"/>
      </g>
      <g transform="matrix(1, 0, 0, 1, -2.01, -0.01)" filter="url(#Ellipse_341)">
        <g id="Ellipse_341-2" data-name="Ellipse 341" transform="translate(15 13)" stroke="#3192d9" stroke-width="3" fill="url(#linear-gradient)">
          <circle cx="47" cy="47" r="47" stroke="none"/>
          <circle cx="47" cy="47" r="45.5" fill="none"/>
        </g>
      </g>
      <path id="Icon_material-add-a-photo" data-name="Icon material-add-a-photo" d="M3.761,5.261V1.5H6.268V5.261h3.761V7.768H6.268v3.761H3.761V7.768H0V5.261Zm3.761,7.522V9.022h3.761V5.261h8.775l2.294,2.507h3.974a2.515,2.515,0,0,1,2.507,2.507V25.319a2.515,2.515,0,0,1-2.507,2.507H6.268a2.515,2.515,0,0,1-2.507-2.507V12.783ZM16.3,24.065A6.268,6.268,0,1,0,10.029,17.8,6.27,6.27,0,0,0,16.3,24.065ZM12.286,17.8A4.012,4.012,0,1,0,16.3,13.786,4.007,4.007,0,0,0,12.286,17.8Z" transform="translate(43.43 45.021)" fill="#fff"/>
    </g>
  </g>
</svg>
